<svg width="18" height="19" viewBox="0 0 18 19" fill="none" xmlns="http://www.w3.org/2000/svg">
<path d="M8.57239 0C5.61688 0 3.19931 2.45737 3.19931 5.45934C3.19931 7.29492 4.10587 8.92041 5.4841 9.90936C2.27587 11.2157 0.00027937 14.403 0.00027937 18.1209C-0.0253336 19.293 1.71882 19.293 1.69321 18.1209C1.69321 14.1745 4.82592 10.9942 8.71124 10.9942C10.0675 10.9942 11.3264 11.3868 12.398 12.0604C13.3613 12.6605 14.2474 11.1929 13.2841 10.5928C12.8017 10.2896 12.2789 10.0532 11.7399 9.84882C13.0704 8.85486 13.9404 7.25843 13.9404 5.45934C13.9404 2.45737 11.5278 0 8.57239 0ZM8.57239 1.72127C10.6129 1.72127 12.2476 3.38667 12.2476 5.45934C12.2476 7.53201 10.6129 9.19056 8.57239 9.19056C6.5318 9.19056 4.89224 7.53201 4.89224 5.45934C4.89224 3.38667 6.5318 1.72127 8.57239 1.72127ZM13.7652 16.351V18.0706C13.7898 19.1917 15.4336 19.1917 15.4581 18.0706V16.351H17.1527C18.2824 16.351 18.2824 14.6297 17.1527 14.6297H15.4581V12.9102C15.4637 12.4282 15.078 12.0356 14.6034 12.0403C14.1353 12.0435 13.7597 12.4347 13.7652 12.9102V14.6297H12.0318C10.8615 14.6847 10.9426 16.4058 12.0723 16.351H13.7652Z" fill="#3B41C5"/>
</svg>
