<svg width="26" height="26" viewBox="0 0 26 26" fill="none" xmlns="http://www.w3.org/2000/svg">
<path d="M16.25 18.4167C15.3839 19.091 14.2461 19.5001 13 19.5001C11.7539 19.5001 10.6162 19.091 9.75 18.4167" stroke="#757575" stroke-width="1.5" stroke-linecap="round"/>
<path d="M2.54766 14.3147C2.16523 11.826 1.97401 10.5817 2.44451 9.47858C2.915 8.37546 3.95886 7.62071 6.04656 6.11123L7.6064 4.98341C10.2035 3.10564 11.502 2.16675 13.0003 2.16675C14.4986 2.16675 15.7972 3.10564 18.3943 4.98341L19.954 6.11123C22.0418 7.62071 23.0856 8.37546 23.5561 9.47858C24.0266 10.5817 23.8354 11.826 23.453 14.3147L23.1269 16.4368C22.5847 19.9647 22.3137 21.7287 21.0484 22.7811C19.7832 23.8334 17.9334 23.8334 14.234 23.8334H11.7666C8.06719 23.8334 6.21748 23.8334 4.95224 22.7811C3.68701 21.7287 3.41593 19.9647 2.87379 16.4368L2.54766 14.3147Z" stroke="#757575" stroke-width="1.5" stroke-linejoin="round"/>
</svg>
