<svg width="15" height="14" viewBox="0 0 15 14" fill="none" xmlns="http://www.w3.org/2000/svg">
<path d="M10.2912 9.56629L10.6416 9.22356L9.82802 8.41861L9.47774 8.76134L10.2912 9.56629ZM11.8181 9.08L13.2876 9.86596L13.8387 8.86872L12.3691 8.08277L11.8181 9.08ZM13.5705 11.428L12.4778 12.4969L13.2913 13.3019L14.384 12.233L13.5705 11.428ZM11.812 12.8411C10.6968 12.9433 7.81148 12.8522 4.68753 9.79618L3.87402 10.6011C7.28305 13.936 10.5277 14.0989 11.9191 13.9713L11.812 12.8411ZM4.68753 9.79618C1.70976 6.88318 1.2165 4.43311 1.15509 3.37019L0.00319112 3.4346C0.0804625 4.77239 0.691242 7.48759 3.87402 10.6011L4.68753 9.79618ZM5.74539 5.1193L5.96599 4.90348L5.15251 4.09856L4.93191 4.31436L5.74539 5.1193ZM6.1416 2.15256L5.1717 0.877907L4.24809 1.55817L5.21797 2.83284L6.1416 2.15256ZM1.90962 0.60047L0.702318 1.78151L1.51583 2.58644L2.72313 1.4054L1.90962 0.60047ZM5.33865 4.71683C4.93191 4.31436 4.93135 4.3149 4.9308 4.31545C4.93061 4.31563 4.93006 4.31618 4.92968 4.31655C4.92893 4.3173 4.92816 4.31806 4.92738 4.31884C4.92582 4.3204 4.92421 4.32203 4.92255 4.32373C4.91921 4.32712 4.91569 4.3308 4.91198 4.33477C4.90456 4.34269 4.89642 4.35176 4.88769 4.36199C4.87026 4.38246 4.8505 4.40767 4.82973 4.43783C4.78809 4.49828 4.74273 4.57822 4.70423 4.67874C4.62567 4.88386 4.58356 5.15425 4.63636 5.48907C4.73961 6.14387 5.19797 7.0088 6.37212 8.15738L7.1856 7.35244C6.08683 6.27755 5.82508 5.62342 5.77647 5.31505C5.75332 5.1683 5.77731 5.09606 5.78393 5.07896C5.78793 5.06838 5.78985 5.0673 5.78493 5.07453C5.78247 5.07806 5.77839 5.08359 5.77201 5.09105C5.76885 5.09478 5.76508 5.099 5.7607 5.10371C5.75847 5.10606 5.75616 5.10854 5.75355 5.11113C5.75232 5.11243 5.75101 5.11376 5.74962 5.11512C5.74893 5.1158 5.74824 5.11649 5.74755 5.11719C5.74724 5.11753 5.7467 5.11806 5.74647 5.11824C5.74593 5.11877 5.74539 5.1193 5.33865 4.71683ZM6.37212 8.15738C7.54665 9.30634 8.42989 9.7535 9.09654 9.85415C9.4372 9.90553 9.71188 9.86452 9.92025 9.78816C10.0224 9.7507 10.1038 9.70659 10.1653 9.66602C10.1961 9.64574 10.2218 9.62645 10.2426 9.60942C10.2531 9.60094 10.2623 9.593 10.2704 9.58573C10.2745 9.5821 10.2782 9.5787 10.2817 9.57544C10.2835 9.57378 10.2851 9.57219 10.2867 9.57067C10.2875 9.56992 10.2882 9.56916 10.289 9.5684C10.2894 9.56803 10.29 9.5675 10.2901 9.56734C10.2907 9.56682 10.2912 9.56629 9.88448 9.16377C9.47774 8.76134 9.47828 8.76081 9.47882 8.76028C9.47897 8.76013 9.47951 8.7596 9.47989 8.75922C9.48059 8.75854 9.48128 8.75786 9.48197 8.75718C9.48343 8.75589 9.48474 8.7546 9.48605 8.75332C9.48874 8.75082 9.49128 8.74855 9.49366 8.74636C9.49843 8.74212 9.50274 8.73841 9.50658 8.73538C9.51412 8.72918 9.51974 8.72524 9.5232 8.7229C9.53035 8.7182 9.52889 8.72032 9.51751 8.72449C9.49866 8.73137 9.42321 8.75506 9.27152 8.73213C8.95362 8.68423 8.28406 8.42693 7.1856 7.35244L6.37212 8.15738ZM5.1717 0.877907C4.38768 -0.152466 2.84596 -0.315506 1.90962 0.60047L2.72313 1.4054C3.13208 1.00533 3.8584 1.04605 4.24809 1.55817L5.1717 0.877907ZM1.15509 3.37019C1.13996 3.10828 1.26206 2.83468 1.51583 2.58644L0.702318 1.78151C0.289024 2.18581 -0.0358907 2.75814 0.00319112 3.4346L1.15509 3.37019ZM12.4778 12.4969C12.2665 12.7037 12.0399 12.8202 11.812 12.8411L11.9191 13.9713C12.4841 13.9194 12.9471 13.6386 13.2913 13.3019L12.4778 12.4969ZM5.96599 4.90348C6.72325 4.16269 6.77955 2.99095 6.1416 2.15256L5.21797 2.83284C5.52833 3.24071 5.48218 3.77606 5.15251 4.09856L5.96599 4.90348ZM13.2876 9.86596C13.9167 10.2024 14.0146 10.9935 13.5705 11.428L14.384 12.233C15.4149 11.2245 15.097 9.54169 13.8387 8.86872L13.2876 9.86596ZM10.6416 9.22356C10.9369 8.93463 11.4124 8.86304 11.8181 9.08L12.3691 8.08277C11.5357 7.63697 10.5013 7.76009 9.82802 8.41861L10.6416 9.22356Z" fill="#B8502E"/>
</svg>
