<svg width="23" height="13" viewBox="0 0 23 13" fill="none" xmlns="http://www.w3.org/2000/svg">
<path d="M15.625 0L18.75 4.16667H20.8333C21.9896 4.16667 22.9167 5.09375 22.9167 6.25V9.375H20.8333C20.8333 11.1042 19.4375 12.5 17.7083 12.5C15.9792 12.5 14.5833 11.1042 14.5833 9.375H8.33333C8.33333 11.1042 6.9375 12.5 5.20833 12.5C3.47917 12.5 2.08333 11.1042 2.08333 9.375H0V6.25C0 5.09375 0.927083 4.16667 2.08333 4.16667L5.20833 0H15.625ZM9.89583 1.5625H5.98958L4.02083 4.16667H9.89583V1.5625ZM11.4583 1.5625V4.16667H16.8125L14.8437 1.5625H11.4583ZM5.20833 7.8125C4.34375 7.8125 3.64583 8.51042 3.64583 9.375C3.64583 10.2396 4.34375 10.9375 5.20833 10.9375C6.07292 10.9375 6.77083 10.2396 6.77083 9.375C6.77083 8.51042 6.07292 7.8125 5.20833 7.8125ZM17.7083 7.8125C16.8437 7.8125 16.1458 8.51042 16.1458 9.375C16.1458 10.2396 16.8437 10.9375 17.7083 10.9375C18.5729 10.9375 19.2708 10.2396 19.2708 9.375C19.2708 8.51042 18.5729 7.8125 17.7083 7.8125Z" fill="#B8502E"/>
</svg>
