<svg width="30" height="30" viewBox="0 0 30 30" fill="none" xmlns="http://www.w3.org/2000/svg">
<path d="M26.5385 0H5.76923C3.86077 0 2.30769 1.346 2.30769 3V5H1.15385C0.516923 5 0 5.448 0 6C0 6.552 0.516923 7 1.15385 7H2.30769V14H1.15385C0.516923 14 0 14.448 0 15C0 15.552 0.516923 16 1.15385 16H2.30769V23H1.15385C0.516923 23 0 23.448 0 24C0 24.552 0.516923 25 1.15385 25H2.30769V27C2.30769 28.654 3.86077 30 5.76923 30H26.5385C28.4469 30 30 28.654 30 27V3C30 1.346 28.4469 0 26.5385 0ZM27.6923 27C27.6923 27.551 27.1742 28 26.5385 28H5.76923C5.13346 28 4.61538 27.551 4.61538 27V25H5.76923C6.40615 25 6.92308 24.552 6.92308 24C6.92308 23.448 6.40615 23 5.76923 23H4.61538V16H5.76923C6.40615 16 6.92308 15.552 6.92308 15C6.92308 14.448 6.40615 14 5.76923 14H4.61538V7H5.76923C6.40615 7 6.92308 6.552 6.92308 6C6.92308 5.448 6.40615 5 5.76923 5H4.61538V3C4.61538 2.449 5.13346 2 5.76923 2H26.5385C27.1742 2 27.6923 2.449 27.6923 3V27ZM16.0096 15C18.555 15 20.625 13.206 20.625 11C20.625 8.794 18.555 7 16.0096 7C13.4642 7 11.3942 8.794 11.3942 11C11.3942 13.206 13.4642 15 16.0096 15ZM16.0096 9C17.2823 9 18.3173 9.897 18.3173 11C18.3173 12.103 17.2823 13 16.0096 13C14.7369 13 13.7019 12.103 13.7019 11C13.7019 9.897 14.7369 9 16.0096 9ZM16.0096 16C12.8504 16 10.0927 17.85 9.30462 20.499C9.12577 21.101 9.27577 21.728 9.71654 22.222C10.1585 22.717 10.8254 23 11.5465 23H20.4715C21.1927 23 21.8596 22.716 22.3015 22.222C22.7423 21.729 22.8923 21.101 22.7135 20.499C21.9254 17.85 19.17 16 16.0096 16ZM11.5465 21L11.5396 20.998C12.0646 19.233 13.9027 18 16.0096 18C18.1165 18 19.9546 19.233 20.4727 21H11.5477H11.5465Z" fill="url(#paint0_linear_573_3696)"/>
<defs>
<linearGradient id="paint0_linear_573_3696" x1="0" y1="15" x2="30" y2="15" gradientUnits="userSpaceOnUse">
<stop stop-color="#3B41C5"/>
<stop offset="1" stop-color="#A981BB"/>
</linearGradient>
</defs>
</svg>
