<svg width="15" height="17" viewBox="0 0 15 17" fill="none" xmlns="http://www.w3.org/2000/svg">
<path d="M3.50016 0C3.23668 0 3.02704 0.241744 3.02704 0.538012V4.06433C3.02704 4.3606 3.23668 4.59649 3.50016 4.59649H3.75603C4.01952 4.59649 4.23399 4.3606 4.23399 4.06433V0.538012C4.23399 0.241744 4.01952 0 3.75603 0H3.50016ZM11.244 0C10.9805 0 10.766 0.241744 10.766 0.538012V4.06433C10.766 4.3606 10.9805 4.59649 11.244 4.59649H11.495C11.7585 4.59649 11.973 4.3606 11.973 4.06433V0.538012C11.973 0.241744 11.7585 0 11.495 0H11.244ZM1.54007 2.5731C0.687878 2.5731 0 3.38876 0 4.40351V15.1637C0 16.1785 0.687878 17 1.54007 17H13.4599C14.3121 17 15 16.1785 15 15.1637V4.40351C15 3.38876 14.3121 2.5731 13.4599 2.5731H12.2916V4.36257C12.2916 4.81581 11.9657 5.18129 11.5626 5.18129H11.1764C10.7733 5.18129 10.4474 4.81581 10.4474 4.36257V2.5731H4.55262V4.36257C4.55262 4.81581 4.22671 5.18129 3.82362 5.18129H3.43257C3.02949 5.18129 2.7084 4.81581 2.7084 4.36257V2.5731H1.54007ZM0.965562 7.67836H14.0296V14.462C14.0296 15.145 13.5797 15.6901 13.0158 15.6901H1.98423C1.42033 15.6901 0.965562 15.145 0.965562 14.462V7.67836Z" fill="#767676"/>
</svg>
