<svg width="16" height="19" viewBox="0 0 16 19" fill="none" xmlns="http://www.w3.org/2000/svg">
<path d="M9.7367 1.21415C9.8977 1.21415 10.0521 1.15019 10.166 1.03634C10.2798 0.922493 10.3438 0.768081 10.3438 0.607075C10.3438 0.446069 10.2798 0.291657 10.166 0.177808C10.0521 0.0639595 9.8977 0 9.7367 0H4.88023C4.71923 0 4.56482 0.0639595 4.45097 0.177808C4.33713 0.291657 4.27317 0.446069 4.27317 0.607075C4.27317 0.768081 4.33713 0.922493 4.45097 1.03634C4.56482 1.15019 4.71923 1.21415 4.88023 1.21415H9.7367Z" fill="#3B41C5"/>
<path d="M1.74786 5.65723L0.843345 4.73448C0.829468 4.71147 0.807995 4.69403 0.782632 4.68517C0.757269 4.6763 0.729608 4.67657 0.704423 4.68593C0.679238 4.69528 0.658108 4.71314 0.644681 4.73641C0.631253 4.75968 0.62637 4.78691 0.630875 4.8134V15.9168C0.634062 16.4826 0.860217 17.0242 1.26026 17.4243C1.66031 17.8243 2.20198 18.0505 2.76772 18.0537H11.8736C12.3721 18.0532 12.855 17.8794 13.2395 17.562C13.2564 17.5466 13.27 17.5279 13.2792 17.507C13.2885 17.486 13.2933 17.4634 13.2933 17.4406C13.2933 17.4177 13.2885 17.3951 13.2792 17.3742C13.27 17.3532 13.2564 17.3345 13.2395 17.3191L12.6324 16.7121C12.6034 16.6856 12.5655 16.671 12.5262 16.671C12.4869 16.671 12.449 16.6856 12.42 16.7121C12.2626 16.8195 12.0763 16.8767 11.8857 16.876H2.77986C2.65478 16.8769 2.53082 16.8525 2.41539 16.8043C2.29997 16.7561 2.19547 16.6851 2.10817 16.5955C2.02086 16.5059 1.95255 16.3996 1.90733 16.283C1.8621 16.1664 1.8409 16.0418 1.84499 15.9168V5.94255C1.85099 5.83843 1.81614 5.73607 1.74786 5.65723Z" fill="#3B41C5"/>
<path d="M15.2002 3.48415C15.3612 3.48415 15.5156 3.42019 15.6295 3.30635C15.7433 3.1925 15.8073 3.03809 15.8073 2.87708C15.8073 2.71607 15.7433 2.56166 15.6295 2.44781C15.5156 2.33396 15.3612 2.27 15.2002 2.27H1.74779L1.0436 1.55366C0.930098 1.43854 0.775511 1.37322 0.61385 1.37209C0.45219 1.37095 0.296698 1.43408 0.181581 1.54759C0.0664649 1.6611 0.00115359 1.81569 1.51352e-05 1.97735C-0.00112332 2.13902 0.0620043 2.29451 0.175511 2.40963L14.3078 16.7427C14.4205 16.861 14.5756 16.9297 14.739 16.9337C14.8199 16.9357 14.9004 16.9217 14.9759 16.8926C15.0514 16.8634 15.1204 16.8197 15.179 16.7639C15.2376 16.7081 15.2846 16.6413 15.3174 16.5673C15.3501 16.4933 15.368 16.4136 15.37 16.3327C15.372 16.2518 15.358 16.1714 15.3289 16.0959C15.2997 16.0204 15.256 15.9514 15.2002 15.8928L13.9861 14.709V3.48415H15.2002ZM12.772 13.4766L9.9188 10.5809V6.54381C9.9188 6.3828 9.85484 6.22839 9.741 6.11454C9.62715 6.0007 9.47274 5.93674 9.31174 5.93674C9.15074 5.93674 8.99633 6.0007 8.88249 6.11454C8.76864 6.22839 8.70468 6.3828 8.70468 6.54381V9.3485L5.90007 6.50132C5.90007 6.34031 5.83612 6.1859 5.72227 6.07205C5.60843 5.9582 5.45402 5.89424 5.29302 5.89424L2.89513 3.46594H12.772V13.4766Z" fill="#3B41C5"/>
<path d="M5.91836 13.8059V10.1209C5.91894 10.0489 5.90529 9.97757 5.87821 9.91089C5.85112 9.84422 5.81113 9.78355 5.76053 9.73238L4.92886 8.88854C4.91025 8.87114 4.88704 8.85942 4.86199 8.85478C4.83694 8.85013 4.81108 8.85275 4.78747 8.86232C4.76385 8.8719 4.74347 8.88803 4.72872 8.90881C4.71398 8.92959 4.70548 8.95415 4.70425 8.9796V13.8362C4.70425 13.9972 4.7682 14.1516 4.88205 14.2655C4.9959 14.3793 5.1503 14.4433 5.31131 14.4433C5.47231 14.4433 5.62671 14.3793 5.74056 14.2655C5.85441 14.1516 5.91836 13.9972 5.91836 13.8362V13.8059Z" fill="#3B41C5"/>
<path d="M9.93695 13.805V13.7625C9.93752 13.6905 9.92388 13.6192 9.89679 13.5525C9.86971 13.4858 9.82971 13.4252 9.77911 13.374L8.94744 12.5301C8.92883 12.5127 8.90563 12.501 8.88058 12.4964C8.85552 12.4917 8.82966 12.4944 8.80605 12.5039C8.78244 12.5135 8.76205 12.5296 8.74731 12.5504C8.73256 12.5712 8.72407 12.5958 8.72283 12.6212V13.805C8.72283 13.966 8.78679 14.1204 8.90063 14.2343C9.01448 14.3481 9.16889 14.4121 9.32989 14.4121C9.49089 14.4121 9.6453 14.3481 9.75915 14.2343C9.87299 14.1204 9.93695 13.966 9.93695 13.805Z" fill="#3B41C5"/>
</svg>
