<svg width="60" height="60" viewBox="0 0 60 60" fill="none" xmlns="http://www.w3.org/2000/svg">
<path d="M5.00323 37.3136C4.9119 35.9731 3.8137 34.9114 2.47008 34.9114C1.0511 34.9114 -0.0886405 36.0996 0.00543372 37.5156C1.06764 53.5021 6.28427 58.7189 22.2709 59.7811C23.6868 59.8751 24.8752 58.7354 24.8752 57.3164C24.8752 55.9729 23.8133 54.8746 22.4728 54.7834C19.882 54.6069 17.6856 54.3186 15.8137 53.9026C12.4233 53.1491 10.412 52.0444 9.07705 50.7094C7.74215 49.3746 6.63737 47.3631 5.88387 43.9729C5.46788 42.1009 5.17973 39.9044 5.00323 37.3136Z" fill="#BD2C06"/>
<path d="M54.7831 37.3136C54.8746 35.9731 55.9726 34.9114 57.3164 34.9114C58.7354 34.9114 59.8751 36.0996 59.7811 37.5156C58.7189 53.5024 53.5021 58.7189 37.5154 59.7811C36.0996 59.8751 34.9111 58.7354 34.9111 57.3164C34.9111 55.9729 35.9731 54.8746 37.3136 54.7834C39.9044 54.6069 42.1009 54.3186 43.9729 53.9026C47.3631 53.1491 49.3744 52.0444 50.7094 50.7094C52.0444 49.3746 53.1491 47.3631 53.9026 43.9729C54.3186 42.1009 54.6066 39.9044 54.7831 37.3136Z" fill="#BD2C06"/>
<path d="M59.7811 22.271C59.8751 23.6869 58.7354 24.8754 57.3164 24.8754C55.9726 24.8754 54.8746 23.8134 54.7831 22.4729C54.6066 19.8821 54.3186 17.6856 53.9026 15.8137C53.1491 12.4233 52.0444 10.412 50.7094 9.07706C49.3744 7.74216 47.3631 6.63738 43.9729 5.88388C42.1009 5.46788 39.9044 5.17971 37.3136 5.00321C35.9731 4.91191 34.9111 3.81371 34.9111 2.47008C34.9111 1.0511 36.0996 -0.0886401 37.5154 0.00543367C53.5021 1.06764 58.7189 6.28426 59.7811 22.271Z" fill="#BD2C06"/>
<path d="M5.00323 22.4729C4.9119 23.8134 3.8137 24.8754 2.47009 24.8754C1.0511 24.8754 -0.0886405 23.6869 0.00543372 22.271C1.06764 6.28428 6.28427 1.06765 22.2709 0.00543381C23.6868 -0.0886412 24.8752 1.0511 24.8752 2.47008C24.8752 3.8137 23.8133 4.9119 22.4728 5.00323C19.882 5.17973 17.6856 5.46788 15.8137 5.88388C12.4233 6.63738 10.412 7.74215 9.07705 9.07705C7.74215 10.412 6.63737 12.4233 5.88387 15.8137C5.46788 17.6856 5.17973 19.8821 5.00323 22.4729Z" fill="#BD2C06"/>
<path fill-rule="evenodd" clip-rule="evenodd" d="M31.5455 38.525V28.7083C31.5455 28.4762 31.6335 28.2537 31.7903 28.0896C31.947 27.9255 32.1595 27.8333 32.3812 27.8333C32.6028 27.8333 32.8154 27.9255 32.9721 28.0896C33.1289 28.2537 33.2169 28.4762 33.2169 28.7083V38.5247C33.2169 38.7568 33.1289 38.9793 32.9721 39.1434C32.8154 39.3075 32.6028 39.3997 32.3812 39.3997C32.1595 39.3997 31.947 39.3075 31.7903 39.1434C31.6335 38.9793 31.5455 38.7568 31.5455 38.5247V38.525ZM26.7748 38.525V28.7083C26.7748 28.4762 26.8628 28.2537 27.0196 28.0896C27.1763 27.9255 27.3889 27.8333 27.6105 27.8333C27.8321 27.8333 28.0447 27.9255 28.2014 28.0896C28.3582 28.2537 28.4462 28.4762 28.4462 28.7083V38.5247C28.4462 38.7568 28.3582 38.9793 28.2014 39.1434C28.0447 39.3075 27.8321 39.3997 27.6105 39.3997C27.3889 39.3997 27.1763 39.3075 27.0196 39.1434C26.8628 38.9793 26.7748 38.7568 26.7748 38.5247V38.525ZM36.7066 41.2113L37.7701 25.9343H22.2206L23.2177 41.2075C23.2329 41.4319 23.3287 41.6419 23.4858 41.7955C23.6429 41.949 23.8497 42.0346 24.0645 42.0352H35.8598C36.0747 42.0368 36.282 41.9524 36.4394 41.7993C36.5968 41.6461 36.6924 41.4358 36.7066 41.2113ZM20.6714 22.7573C20.6718 22.3789 20.8156 22.0162 21.0712 21.7487C21.3268 21.4812 21.6733 21.3308 22.0347 21.3305H37.9653C38.3268 21.3308 38.6733 21.4813 38.9289 21.7489C39.1845 22.0165 39.3282 22.3794 39.3286 22.7578V24.1852H20.6714V22.7578V22.7573ZM26.2175 18.05C26.2192 17.9139 26.2715 17.784 26.3634 17.6878C26.4553 17.5916 26.5795 17.5368 26.7094 17.5352H33.2906C33.4205 17.5369 33.5447 17.5918 33.6365 17.6879C33.7284 17.7841 33.7808 17.9141 33.7825 18.0501V19.5805H26.2175V18.05ZM37.9653 19.5805H35.454V18.05C35.4533 17.4495 35.2252 16.8738 34.8196 16.4492C34.414 16.0246 33.8641 15.7858 33.2906 15.7852H26.7094C26.1358 15.7859 25.5859 16.0248 25.1803 16.4494C24.7747 16.8741 24.5465 17.4499 24.5459 18.0504V19.5805H22.0347C21.2301 19.5815 20.4588 19.9166 19.8899 20.5123C19.3211 21.1079 19.001 21.9155 19 22.7578V25.0602C19.0001 25.2922 19.0882 25.5147 19.2449 25.6787C19.4016 25.8428 19.6141 25.935 19.8357 25.9352L20.5457 25.9347L21.5501 41.3266C21.5953 41.993 21.8797 42.6169 22.346 43.0729C22.8124 43.5289 23.4262 43.7834 24.0643 43.7852H35.8599C36.4959 43.7829 37.1077 43.5299 37.5734 43.0766C38.0392 42.6232 38.3248 42.0028 38.3732 41.3389L39.4457 25.9345H40.1643C40.3859 25.9345 40.5984 25.8424 40.7551 25.6784C40.9118 25.5143 40.9999 25.2919 41 25.0599V22.7575C40.999 21.9152 40.679 21.1077 40.1101 20.5121C39.5412 19.9165 38.7698 19.5814 37.9653 19.5805Z" fill="#BD2C06"/>
</svg>
