<svg width="14" height="18" viewBox="0 0 14 18" fill="none" xmlns="http://www.w3.org/2000/svg">
<path fill-rule="evenodd" clip-rule="evenodd" d="M7.98349 14.3263V8.14183C7.98349 7.99563 8.03952 7.85541 8.13926 7.75203C8.23899 7.64865 8.37426 7.59058 8.5153 7.59058C8.65635 7.59058 8.79162 7.64865 8.89135 7.75203C8.99109 7.85541 9.04712 7.99563 9.04712 8.14183V14.3262C9.04712 14.4724 8.99109 14.6126 8.89135 14.716C8.79162 14.8193 8.65635 14.8774 8.5153 14.8774C8.37426 14.8774 8.23899 14.8193 8.13926 14.716C8.03952 14.6126 7.98349 14.4724 7.98349 14.3262V14.3263ZM4.9476 14.3263V8.14183C4.9476 7.99563 5.00363 7.85541 5.10336 7.75203C5.2031 7.64865 5.33837 7.59058 5.47941 7.59058C5.62046 7.59058 5.75573 7.64865 5.85546 7.75203C5.95519 7.85541 6.01122 7.99563 6.01122 8.14183V14.3262C6.01122 14.4724 5.95519 14.6126 5.85546 14.716C5.75573 14.8193 5.62046 14.8774 5.47941 14.8774C5.33837 14.8774 5.2031 14.8193 5.10336 14.716C5.00363 14.6126 4.9476 14.4724 4.9476 14.3262V14.3263ZM11.2678 16.0187L11.9446 6.39423H2.04948L2.68396 16.0163C2.69369 16.1577 2.75466 16.29 2.85462 16.3867C2.95458 16.4835 3.08615 16.5374 3.22289 16.5377H10.729C10.8657 16.5388 10.9977 16.4856 11.0978 16.3891C11.198 16.2927 11.2588 16.1602 11.2678 16.0187ZM1.06363 4.39271C1.06389 4.15433 1.15539 3.9258 1.31803 3.75727C1.48067 3.58874 1.70118 3.49398 1.93115 3.49379H12.0689C12.2989 3.49403 12.5194 3.58884 12.682 3.75743C12.8447 3.92602 12.9361 4.1546 12.9364 4.39302V5.29224H1.06363V4.39302V4.39271ZM4.59298 1.42709C4.59401 1.34138 4.62732 1.25949 4.6858 1.19889C4.74428 1.13829 4.8233 1.10379 4.90598 1.10274H9.09402C9.1767 1.10386 9.25569 1.1384 9.31417 1.199C9.37264 1.25961 9.40597 1.34148 9.40706 1.42719V2.39129H4.59298V1.42709ZM12.0689 2.39129H10.4707V1.42709C10.4703 1.04877 10.3251 0.686074 10.067 0.418579C9.80892 0.151084 9.459 0.000636238 9.09402 0.000244141L4.90598 0.000244141C4.54097 0.000690925 4.19102 0.151191 3.93291 0.418731C3.67481 0.68627 3.52961 1.049 3.52918 1.42736V2.39129H1.93115C1.41917 2.39196 0.928351 2.60307 0.56633 2.97832C0.204308 3.35357 0.000642064 3.86233 0 4.39302V5.84349C7.04593e-05 5.98967 0.0561233 6.12984 0.155842 6.23321C0.255562 6.33657 0.39079 6.39467 0.531814 6.39474L0.983656 6.39447L1.62276 16.0913C1.65156 16.5112 1.83251 16.9042 2.12928 17.1915C2.42606 17.4788 2.81669 17.6391 3.22276 17.6402H10.729C11.1337 17.6388 11.5231 17.4795 11.8195 17.1938C12.1159 16.9082 12.2976 16.5174 12.3284 16.0991L13.0109 6.39433H13.4682C13.6092 6.39433 13.7444 6.33629 13.8442 6.23296C13.9439 6.12963 13.9999 5.98948 14 5.84332V4.39285C13.9994 3.86217 13.7957 3.35342 13.4337 2.9782C13.0716 2.60297 12.5808 2.3919 12.0689 2.39129Z" fill="#3B41C5"/>
</svg>
