<svg width="18" height="18" viewBox="0 0 18 18" fill="none" xmlns="http://www.w3.org/2000/svg">
<path d="M3.3795 16.4547L1.8 5.4H16.2L14.6205 16.4547C14.5592 16.8836 14.3452 17.276 14.0179 17.5599C13.6905 17.8438 13.2718 18 12.8385 18H5.1615C4.72822 18 4.30947 17.8438 3.98212 17.5599C3.65478 17.276 3.44081 16.8836 3.3795 16.4547ZM17.1 1.8H12.6V0.9C12.6 0.661305 12.5052 0.432387 12.3364 0.263604C12.1676 0.0948211 11.9387 0 11.7 0H6.3C6.06131 0 5.83239 0.0948211 5.6636 0.263604C5.49482 0.432387 5.4 0.661305 5.4 0.9V1.8H0.9C0.661305 1.8 0.432387 1.89482 0.263604 2.0636C0.0948211 2.23239 0 2.46131 0 2.7C0 2.93869 0.0948211 3.16761 0.263604 3.3364C0.432387 3.50518 0.661305 3.6 0.9 3.6H17.1C17.3387 3.6 17.5676 3.50518 17.7364 3.3364C17.9052 3.16761 18 2.93869 18 2.7C18 2.46131 17.9052 2.23239 17.7364 2.0636C17.5676 1.89482 17.3387 1.8 17.1 1.8Z" fill="#B8502E"/>
</svg>
