<svg width="60" height="60" viewBox="0 0 60 60" fill="none" xmlns="http://www.w3.org/2000/svg">
<g clip-path="url(#clip0_724_2325)">
<path d="M5.00323 37.3139C4.9119 35.9734 3.8137 34.9116 2.47008 34.9116C1.0511 34.9116 -0.0886405 36.0999 0.00543372 37.5159C1.06764 53.5024 6.28427 58.7191 22.2709 59.7814C23.6868 59.8754 24.8752 58.7356 24.8752 57.3166C24.8752 55.9731 23.8133 54.8749 22.4728 54.7836C19.882 54.6071 17.6856 54.3189 15.8137 53.9029C12.4233 53.1494 10.412 52.0446 9.07705 50.7096C7.74215 49.3749 6.63737 47.3634 5.88387 43.9731C5.46788 42.1011 5.17973 39.9046 5.00323 37.3139Z" fill="#3B41C5"/>
<path d="M54.7831 37.3139C54.8746 35.9734 55.9726 34.9116 57.3164 34.9116C58.7354 34.9116 59.8751 36.0999 59.7811 37.5159C58.7189 53.5026 53.5021 58.7191 37.5154 59.7814C36.0996 59.8754 34.9111 58.7356 34.9111 57.3166C34.9111 55.9731 35.9731 54.8749 37.3136 54.7836C39.9044 54.6071 42.1009 54.3189 43.9729 53.9029C47.3631 53.1494 49.3744 52.0446 50.7094 50.7096C52.0444 49.3749 53.1491 47.3634 53.9026 43.9731C54.3186 42.1011 54.6066 39.9046 54.7831 37.3139Z" fill="#3B41C5"/>
<path d="M59.7811 22.271C59.8751 23.6869 58.7354 24.8754 57.3164 24.8754C55.9726 24.8754 54.8746 23.8134 54.7831 22.4729C54.6066 19.8821 54.3186 17.6856 53.9026 15.8137C53.1491 12.4233 52.0444 10.412 50.7094 9.07706C49.3744 7.74216 47.3631 6.63738 43.9729 5.88388C42.1009 5.46788 39.9044 5.17971 37.3136 5.00321C35.9731 4.91191 34.9111 3.81371 34.9111 2.47008C34.9111 1.0511 36.0996 -0.0886401 37.5154 0.00543367C53.5021 1.06764 58.7189 6.28426 59.7811 22.271Z" fill="#3B41C5"/>
<path d="M5.00323 22.4729C4.9119 23.8134 3.8137 24.8754 2.47009 24.8754C1.0511 24.8754 -0.0886405 23.6869 0.00543372 22.271C1.06764 6.28428 6.28427 1.06765 22.2709 0.00543381C23.6868 -0.0886412 24.8752 1.0511 24.8752 2.47008C24.8752 3.8137 23.8133 4.9119 22.4728 5.00323C19.882 5.17973 17.6856 5.46788 15.8137 5.88388C12.4233 6.63738 10.412 7.74215 9.07705 9.07705C7.74215 10.412 6.63737 12.4233 5.88387 15.8137C5.46788 17.6856 5.17973 19.8821 5.00323 22.4729Z" fill="#3B41C5"/>
<path d="M32.7332 16.0866C33.0099 16.0866 33.2752 15.9767 33.4709 15.781C33.6665 15.5854 33.7765 15.32 33.7765 15.0433C33.7765 14.7666 33.6665 14.5012 33.4709 14.3056C33.2752 14.1099 33.0099 14 32.7332 14H24.387C24.1103 14 23.845 14.1099 23.6493 14.3056C23.4537 14.5012 23.3438 14.7666 23.3438 15.0433C23.3438 15.32 23.4537 15.5854 23.6493 15.781C23.845 15.9767 24.1103 16.0866 24.387 16.0866H32.7332Z" fill="#3B41C5"/>
<path d="M19.004 23.7232L17.4495 22.1373C17.4256 22.0978 17.3887 22.0678 17.3452 22.0526C17.3016 22.0374 17.254 22.0378 17.2107 22.0539C17.1675 22.07 17.1312 22.1007 17.1081 22.1407C17.085 22.1807 17.0766 22.2274 17.0843 22.273V41.3549C17.0898 42.3272 17.4785 43.2581 18.166 43.9456C18.8535 44.6332 19.7844 45.0218 20.7567 45.0273H36.4057C37.2625 45.0265 38.0924 44.7277 38.7531 44.1823C38.7822 44.1558 38.8055 44.1236 38.8214 44.0877C38.8373 44.0518 38.8455 44.0129 38.8455 43.9736C38.8455 43.9343 38.8373 43.8954 38.8214 43.8595C38.8055 43.8235 38.7822 43.7913 38.7531 43.7649L37.7098 42.7216C37.6599 42.6762 37.5948 42.651 37.5273 42.651C37.4597 42.651 37.3946 42.6762 37.3447 42.7216C37.0742 42.9063 36.7541 43.0046 36.4266 43.0033H20.7775C20.5626 43.0048 20.3495 42.9629 20.1512 42.8801C19.9528 42.7973 19.7732 42.6752 19.6232 42.5213C19.4731 42.3673 19.3557 42.1847 19.278 41.9842C19.2003 41.7838 19.1639 41.5698 19.1709 41.3549V24.2135C19.1812 24.0346 19.1213 23.8586 19.004 23.7232Z" fill="#3B41C5"/>
<path d="M42.1226 19.9877C42.3993 19.9877 42.6646 19.8778 42.8603 19.6821C43.056 19.4864 43.1659 19.2211 43.1659 18.9444C43.1659 18.6677 43.056 18.4023 42.8603 18.2066C42.6646 18.011 42.3993 17.9011 42.1226 17.9011H19.0037L17.7935 16.67C17.5984 16.4721 17.3328 16.3599 17.0549 16.3579C16.7771 16.356 16.5099 16.4645 16.3121 16.6595C16.1142 16.8546 16.002 17.1203 16 17.3981C15.9981 17.676 16.1066 17.9432 16.3016 18.141L40.589 42.7733C40.7827 42.9767 41.0492 43.0948 41.33 43.1016C41.469 43.105 41.6073 43.081 41.737 43.0309C41.8668 42.9809 41.9854 42.9057 42.0861 42.8098C42.1868 42.7139 42.2676 42.5991 42.3239 42.472C42.3803 42.3448 42.411 42.2079 42.4144 42.0688C42.4178 41.9298 42.3938 41.7915 42.3437 41.6617C42.2936 41.532 42.2185 41.4134 42.1226 41.3127L40.0361 39.2783V19.9877H42.1226ZM37.9495 37.1604L33.0461 32.1838V25.2459C33.0461 24.9692 32.9362 24.7038 32.7406 24.5082C32.5449 24.3125 32.2796 24.2026 32.0029 24.2026C31.7262 24.2026 31.4608 24.3125 31.2652 24.5082C31.0695 24.7038 30.9596 24.9692 30.9596 25.2459V30.0659L26.1397 25.1729C26.1397 24.8962 26.0298 24.6308 25.8341 24.4351C25.6385 24.2395 25.3731 24.1296 25.0964 24.1296L20.9755 19.9564H37.9495V37.1604Z" fill="#3B41C5"/>
<path d="M26.171 37.7265V31.3936C26.172 31.27 26.1486 31.1473 26.102 31.0327C26.0555 30.9181 25.9867 30.8139 25.8998 30.7259L24.4705 29.2757C24.4385 29.2458 24.3986 29.2257 24.3556 29.2177C24.3125 29.2097 24.2681 29.2142 24.2275 29.2307C24.1869 29.2471 24.1519 29.2749 24.1265 29.3106C24.1012 29.3463 24.0866 29.3885 24.0845 29.4322V37.7786C24.0845 38.0553 24.1944 38.3207 24.39 38.5164C24.5857 38.712 24.8511 38.8219 25.1277 38.8219C25.4044 38.8219 25.6698 38.712 25.8654 38.5164C26.0611 38.3207 26.171 38.0553 26.171 37.7786V37.7265Z" fill="#3B41C5"/>
<path d="M33.0773 37.7255V37.6524C33.0783 37.5288 33.0548 37.4061 33.0083 37.2915C32.9617 37.1769 32.893 37.0727 32.806 36.9847L31.3767 35.5345C31.3447 35.5046 31.3049 35.4845 31.2618 35.4765C31.2188 35.4685 31.1743 35.473 31.1337 35.4895C31.0932 35.5059 31.0581 35.5336 31.0328 35.5694C31.0074 35.6051 30.9929 35.6473 30.9907 35.691V37.7255C30.9907 38.0022 31.1006 38.2675 31.2963 38.4632C31.4919 38.6588 31.7573 38.7688 32.034 38.7688C32.3107 38.7688 32.576 38.6588 32.7717 38.4632C32.9674 38.2675 33.0773 38.0022 33.0773 37.7255Z" fill="#3B41C5"/>
</g>
<defs>
<clipPath id="clip0_724_2325">
<rect width="60" height="60" fill="white"/>
</clipPath>
</defs>
</svg>
