<svg width="18" height="16" viewBox="0 0 18 16" fill="none" xmlns="http://www.w3.org/2000/svg">
<path d="M0.81819 15.8H5.72733C5.94433 15.8 6.15244 15.708 6.30588 15.5442C6.45932 15.3803 6.54552 15.1582 6.54552 14.9265C6.54552 14.6948 6.45932 14.4726 6.30588 14.3088C6.15244 14.145 5.94433 14.053 5.72733 14.053H1.69447C1.89301 12.5984 2.57495 11.2686 3.61578 10.3064C4.65661 9.34415 5.98689 8.8137 7.36371 8.81187C8.32711 8.82079 9.26307 8.46958 10.0094 7.8191C10.7557 7.16862 11.2653 6.25988 11.45 5.25036C11.6346 4.24084 11.4826 3.19417 11.0203 2.29174C10.5579 1.38932 9.81447 0.688021 8.91868 0.309386C8.0229 -0.0692488 7.03126 -0.101356 6.11563 0.21863C5.2 0.538615 4.41809 1.19053 3.9054 2.06138C3.39272 2.93223 3.18157 3.96714 3.30855 4.98675C3.43554 6.00636 3.89266 6.94641 4.60068 7.64398C3.24266 8.23214 2.07965 9.23909 1.26018 10.5362C0.440714 11.8334 0.00197704 13.3619 0 14.9265C0 15.1582 0.0862019 15.3803 0.239642 15.5442C0.393083 15.708 0.601192 15.8 0.81819 15.8ZM7.36371 1.82374C7.84918 1.82374 8.32374 1.97743 8.72739 2.26538C9.13105 2.55333 9.44565 2.9626 9.63143 3.44145C9.81721 3.92029 9.86582 4.44719 9.77111 4.95553C9.6764 5.46387 9.44263 5.9308 9.09935 6.2973C8.75607 6.66379 8.31871 6.91337 7.84257 7.01448C7.36643 7.1156 6.8729 7.0637 6.42438 6.86536C5.97587 6.66702 5.59252 6.33113 5.32281 5.90019C5.0531 5.46924 4.90914 4.96258 4.90914 4.44429C4.90914 3.74927 5.16774 3.08273 5.62807 2.59128C6.08839 2.09983 6.71272 1.82374 7.36371 1.82374ZM15.715 5.57374C15.5615 5.40998 15.3535 5.31799 15.1365 5.31799C14.9196 5.31799 14.7115 5.40998 14.558 5.57374L9.44436 11.0332C9.35496 11.1294 9.28749 11.2463 9.24718 11.3748L8.22444 14.6505C8.1835 14.7817 8.17234 14.9215 8.19187 15.0582C8.21141 15.195 8.2611 15.3248 8.33683 15.4371C8.41257 15.5493 8.51219 15.6407 8.6275 15.7038C8.74281 15.7669 8.87051 15.7999 9.00009 15.8C9.08794 15.7999 9.17521 15.7848 9.25864 15.7555L12.3268 14.6636C12.4474 14.6206 12.557 14.5482 12.6468 14.4522L17.7604 8.99269C17.9138 8.82888 18 8.60674 18 8.37511C18 8.14349 17.9138 7.92134 17.7604 7.75753L15.715 5.57374ZM11.624 13.0711L10.2912 13.5455L10.7355 12.1225L15.1365 7.42647L16.0251 8.37511L11.624 13.0711Z" fill="#3B41C5"/>
</svg>
