<svg width="15" height="15" viewBox="0 0 15 15" fill="none" xmlns="http://www.w3.org/2000/svg">
<path d="M0.827254 10.7465C0.759472 10.8142 0.71387 10.9005 0.694529 10.9935L0.00943193 14.4207C-0.0225073 14.5796 0.0278857 14.7434 0.142157 14.8587C0.234249 14.9508 0.35828 15.0001 0.485327 15.0001C0.516202 15.0001 0.548318 14.9973 0.580258 14.9906L4.00592 14.3054C4.10085 14.2858 4.18709 14.2404 4.25398 14.1724L11.9212 6.50412L8.49552 3.07812L0.827254 10.7465Z" fill="#B8502E"/>
<path d="M14.2891 0.708757C13.3444 -0.236252 11.8074 -0.236252 10.8634 0.708757L9.52234 2.05005L12.948 5.47622L14.2891 4.13475C14.7465 3.6783 14.9985 3.06959 14.9985 2.4222C14.9985 1.7748 14.7465 1.16609 14.2891 0.708757Z" fill="#B8502E"/>
</svg>
