<svg width="22" height="20" viewBox="0 0 22 20" fill="none" xmlns="http://www.w3.org/2000/svg">
<path d="M20.3377 12.4368V1.17627H19.3293L19.6655 12.4368H20.3377Z" fill="#B8502E" stroke="#B8502E" stroke-width="2" stroke-miterlimit="10" stroke-linecap="round" stroke-linejoin="round"/>
<path d="M13.947 18.7227C14.047 18.7824 14.1628 18.8193 14.2878 18.8193H15.6804C15.6593 18.9004 15.6472 18.9856 15.6472 19.0732C15.6473 19.2206 15.6799 19.3602 15.7371 19.4863L14.6433 19.499C14.3068 19.4987 13.9478 19.1438 13.947 18.7227ZM19.3435 18.7402C19.3434 19.1305 19.0218 19.4499 18.655 19.4502H18.6482L17.5779 19.4629C17.6285 19.3431 17.656 19.2114 17.656 19.0732C17.656 18.9855 17.644 18.9004 17.6228 18.8193H18.9929C19.1219 18.8193 19.2415 18.781 19.3435 18.7178V18.7402ZM14.5515 9.66406C14.5123 9.74849 14.4868 9.83962 14.4773 9.93359L14.4734 10.0166L14.4773 10.0996C14.4891 10.215 14.526 10.3255 14.5818 10.4248H14.2878C14.1629 10.4248 14.0469 10.4609 13.947 10.5205V10.3428C13.9471 9.99981 14.2114 9.70967 14.5515 9.66406ZM18.657 9.65137C18.9848 9.65147 19.2682 9.89316 19.3337 10.2129L19.3474 10.3545L19.3464 10.5273C19.2438 10.4631 19.1231 10.4248 18.9929 10.4248H17.7693C17.8159 10.3206 17.8425 10.2055 17.8425 10.084C17.8425 9.92551 17.7981 9.77766 17.7214 9.65137H18.657Z" fill="#B8502E" stroke="#B8502E"/>
<path d="M1.5293 0.5H19.9912C20.5643 0.5 21.0157 0.948882 21.0156 1.50488L21.0117 14.0605V14.0615C21.0115 14.6446 20.5329 15.1298 19.9873 15.1299H19.8291V12.7686H20.6699V0.844727H0.84668V12.7686H13.2832V17.6514H6.71973V17.6426H8.06445V15.1299H1.52441C0.969897 15.1298 0.500005 14.6566 0.5 14.082L0.503906 1.48242C0.50396 0.936114 0.94627 0.5 1.5293 0.5ZM10.7373 12.8525C10.1824 12.8525 9.73262 13.3024 9.73242 13.8564C9.73242 14.411 10.1824 14.8613 10.7373 14.8613C11.2915 14.8612 11.7412 14.4111 11.7412 13.8564C11.741 13.3023 11.2915 12.8527 10.7373 12.8525Z" fill="#B8502E" stroke="#B8502E"/>
</svg>
