<svg width="17" height="17" viewBox="0 0 17 17" fill="none" xmlns="http://www.w3.org/2000/svg">
<path d="M15.4727 2.02539H13.9785V1.49414C13.9785 0.670272 13.3082 0 12.4844 0C11.6605 0 10.9902 0.670272 10.9902 1.49414V2.02539H9.99414V1.49414C9.99414 0.670272 9.32387 0 8.5 0C7.67613 0 7.00586 0.670272 7.00586 1.49414V2.02539H6.00977V1.49414C6.00977 0.670272 5.33949 0 4.51562 0C3.69176 0 3.02148 0.670272 3.02148 1.49414V2.02539H1.49414C0.670272 2.02539 0 2.69566 0 3.51953V15.5059C0 16.3297 0.670272 17 1.49414 17H15.4727C16.2965 17 16.9668 16.3297 16.9668 15.5059V3.51953C16.9668 2.69566 16.2965 2.02539 15.4727 2.02539ZM11.9863 1.49414C11.9863 1.21952 12.2098 0.996094 12.4844 0.996094C12.759 0.996094 12.9824 1.21952 12.9824 1.49414V2.02539H11.9863V1.49414ZM8.00195 1.49414C8.00195 1.21952 8.22538 0.996094 8.5 0.996094C8.77462 0.996094 8.99805 1.21952 8.99805 1.49414V2.02539H8.00195V1.49414ZM4.01758 1.49414C4.01758 1.21952 4.241 0.996094 4.51562 0.996094C4.79025 0.996094 5.01367 1.21952 5.01367 1.49414V2.02539H4.01758V1.49414ZM1.49414 3.02148H5.01367V3.51953C5.01367 3.79415 4.79025 4.01758 4.51562 4.01758C4.24057 4.01758 4.01758 4.24057 4.01758 4.51562C4.01758 4.79068 4.24057 5.01367 4.51562 5.01367C5.33949 5.01367 6.00977 4.3434 6.00977 3.51953V3.02148H8.99805V3.51953C8.99805 3.79415 8.77462 4.01758 8.5 4.01758C8.22495 4.01758 8.00195 4.24057 8.00195 4.51562C8.00195 4.79068 8.22495 5.01367 8.5 5.01367C9.32387 5.01367 9.99414 4.3434 9.99414 3.51953V3.02148H12.9824V3.51953C12.9824 3.79415 12.759 4.01758 12.4844 4.01758C12.2093 4.01758 11.9863 4.24057 11.9863 4.51562C11.9863 4.79068 12.2093 5.01367 12.4844 5.01367C13.3082 5.01367 13.9785 4.3434 13.9785 3.51953V3.02148H15.4727C15.7473 3.02148 15.9707 3.24491 15.9707 3.51953V6.00977H0.996094V3.51953C0.996094 3.24491 1.21952 3.02148 1.49414 3.02148ZM0.996094 15.5059V7.00586H15.9707V11.9863H12.4678C12.1927 11.9863 11.9697 12.2093 11.9697 12.4844V16.0039H1.49414C1.21952 16.0039 0.996094 15.7805 0.996094 15.5059ZM15.2306 12.9824L12.9658 15.2852V12.9824H15.2306ZM15.4727 16.0039H13.6561L15.9707 13.6504V15.5059C15.9707 15.7805 15.7473 16.0039 15.4727 16.0039Z" fill="#3B41C5"/>
<path d="M3.49902 8.00195H2.50293C2.22787 8.00195 2.00488 8.22495 2.00488 8.5C2.00488 8.77505 2.22787 8.99805 2.50293 8.99805H3.49902C3.77408 8.99805 3.99707 8.77505 3.99707 8.5C3.99707 8.22495 3.77408 8.00195 3.49902 8.00195Z" fill="#3B41C5"/>
<path d="M3.49902 9.99414H2.50293C2.22787 9.99414 2.00488 10.2171 2.00488 10.4922C2.00488 10.7672 2.22787 10.9902 2.50293 10.9902H3.49902C3.77408 10.9902 3.99707 10.7672 3.99707 10.4922C3.99707 10.2171 3.77408 9.99414 3.49902 9.99414Z" fill="#3B41C5"/>
<path d="M3.49902 11.9863H2.50293C2.22787 11.9863 2.00488 12.2093 2.00488 12.4844C2.00488 12.7594 2.22787 12.9824 2.50293 12.9824H3.49902C3.77408 12.9824 3.99707 12.7594 3.99707 12.4844C3.99707 12.2093 3.77408 11.9863 3.49902 11.9863Z" fill="#3B41C5"/>
<path d="M3.49902 13.9785H2.50293C2.22787 13.9785 2.00488 14.2015 2.00488 14.4766C2.00488 14.7516 2.22787 14.9746 2.50293 14.9746H3.49902C3.77408 14.9746 3.99707 14.7516 3.99707 14.4766C3.99707 14.2015 3.77408 13.9785 3.49902 13.9785Z" fill="#3B41C5"/>
<path d="M6.4873 8.00195H5.49121C5.21616 8.00195 4.99316 8.22495 4.99316 8.5C4.99316 8.77505 5.21616 8.99805 5.49121 8.99805H6.4873C6.76236 8.99805 6.98535 8.77505 6.98535 8.5C6.98535 8.22495 6.76236 8.00195 6.4873 8.00195Z" fill="#3B41C5"/>
<path d="M6.4873 9.99414H5.49121C5.21616 9.99414 4.99316 10.2171 4.99316 10.4922C4.99316 10.7672 5.21616 10.9902 5.49121 10.9902H6.4873C6.76236 10.9902 6.98535 10.7672 6.98535 10.4922C6.98535 10.2171 6.76236 9.99414 6.4873 9.99414Z" fill="#3B41C5"/>
<path d="M6.4873 11.9863H5.49121C5.21616 11.9863 4.99316 12.2093 4.99316 12.4844C4.99316 12.7594 5.21616 12.9824 5.49121 12.9824H6.4873C6.76236 12.9824 6.98535 12.7594 6.98535 12.4844C6.98535 12.2093 6.76236 11.9863 6.4873 11.9863Z" fill="#3B41C5"/>
<path d="M6.4873 13.9785H5.49121C5.21616 13.9785 4.99316 14.2015 4.99316 14.4766C4.99316 14.7516 5.21616 14.9746 5.49121 14.9746H6.4873C6.76236 14.9746 6.98535 14.7516 6.98535 14.4766C6.98535 14.2015 6.76236 13.9785 6.4873 13.9785Z" fill="#3B41C5"/>
<path d="M8.47949 8.99805H9.47559C9.75064 8.99805 9.97363 8.77505 9.97363 8.5C9.97363 8.22495 9.75064 8.00195 9.47559 8.00195H8.47949C8.20444 8.00195 7.98145 8.22495 7.98145 8.5C7.98145 8.77505 8.20444 8.99805 8.47949 8.99805Z" fill="#3B41C5"/>
<path d="M9.47559 9.99414H8.47949C8.20444 9.99414 7.98145 10.2171 7.98145 10.4922C7.98145 10.7672 8.20444 10.9902 8.47949 10.9902H9.47559C9.75064 10.9902 9.97363 10.7672 9.97363 10.4922C9.97363 10.2171 9.75064 9.99414 9.47559 9.99414Z" fill="#3B41C5"/>
<path d="M9.47559 11.9863H8.47949C8.20444 11.9863 7.98145 12.2093 7.98145 12.4844C7.98145 12.7594 8.20444 12.9824 8.47949 12.9824H9.47559C9.75064 12.9824 9.97363 12.7594 9.97363 12.4844C9.97363 12.2093 9.75064 11.9863 9.47559 11.9863Z" fill="#3B41C5"/>
<path d="M9.47559 13.9785H8.47949C8.20444 13.9785 7.98145 14.2015 7.98145 14.4766C7.98145 14.7516 8.20444 14.9746 8.47949 14.9746H9.47559C9.75064 14.9746 9.97363 14.7516 9.97363 14.4766C9.97363 14.2015 9.75064 13.9785 9.47559 13.9785Z" fill="#3B41C5"/>
<path d="M11.4678 8.99805H12.4639C12.7389 8.99805 12.9619 8.77505 12.9619 8.5C12.9619 8.22495 12.7389 8.00195 12.4639 8.00195H11.4678C11.1927 8.00195 10.9697 8.22495 10.9697 8.5C10.9697 8.77505 11.1927 8.99805 11.4678 8.99805Z" fill="#3B41C5"/>
<path d="M11.4678 10.9902H12.4639C12.7389 10.9902 12.9619 10.7672 12.9619 10.4922C12.9619 10.2171 12.7389 9.99414 12.4639 9.99414H11.4678C11.1927 9.99414 10.9697 10.2171 10.9697 10.4922C10.9697 10.7672 11.1927 10.9902 11.4678 10.9902Z" fill="#3B41C5"/>
</svg>
