<svg width="18" height="12" viewBox="0 0 18 12" fill="none" xmlns="http://www.w3.org/2000/svg">
<path d="M8.56972 0C5.07429 0 1.93371 2.65114 0.124286 5.55686C0.042 5.69314 0 5.84657 0 6C0 6.15343 0.0411429 6.30686 0.123429 6.44314C1.93371 9.34886 5.07429 12 8.56972 12C12.1209 12 15.252 9.35143 17.0246 6.43457C17.1034 6.30086 17.1429 6.15 17.1429 6C17.1429 5.85 17.1034 5.69914 17.0246 5.56543C15.252 2.64857 12.1209 0 8.56972 0ZM15.7809 6C14.2063 8.46686 11.5834 10.7143 8.56972 10.7143C5.59971 10.7143 2.97086 8.45829 1.36629 6C2.97 3.54171 5.59971 1.28571 8.56972 1.28571C11.5851 1.28571 14.2089 3.53486 15.7809 6ZM8.57143 2.57143C10.464 2.57143 12 4.10743 12 6C12 7.89257 10.464 9.42857 8.57143 9.42857C6.67886 9.42857 5.14286 7.89257 5.14286 6C5.14286 4.10743 6.67886 2.57143 8.57143 2.57143ZM8.57143 3.85714C7.38857 3.85714 6.42857 4.81714 6.42857 6C6.42857 7.18286 7.38857 8.14286 8.57143 8.14286C9.75429 8.14286 10.7143 7.18286 10.7143 6C10.7143 4.81714 9.75429 3.85714 8.57143 3.85714Z" fill="#878787"/>
</svg>
