<svg width="22" height="15" viewBox="0 0 22 15" fill="none" xmlns="http://www.w3.org/2000/svg">
<path d="M10.7145 9.64167C11.898 9.64167 12.8574 8.68228 12.8574 7.49881C12.8574 6.31535 11.898 5.35596 10.7145 5.35596C9.53105 5.35596 8.57166 6.31535 8.57166 7.49881C8.57166 8.68228 9.53105 9.64167 10.7145 9.64167Z" fill="#B8502E"/>
<path d="M10.7143 15C17.1429 15 21.4286 7.5 21.4286 7.5C21.4286 7.5 17.1429 0 10.7143 0C4.28571 0 0 7.5 0 7.5C0 7.5 4.28571 15 10.7143 15ZM10.7143 3.21429C13.0811 3.21429 15 5.13321 15 7.5C15 9.86679 13.0811 11.7857 10.7143 11.7857C8.3475 11.7857 6.42857 9.86679 6.42857 7.5C6.42857 5.13321 8.3475 3.21429 10.7143 3.21429Z" fill="#B8502E"/>
</svg>
