<svg width="8" height="8" viewBox="0 0 8 8" fill="none" xmlns="http://www.w3.org/2000/svg">
<path d="M6.70354 0.397539L4.00154 3.09955L1.29953 0.397539C1.05073 0.148737 0.647806 0.148737 0.399004 0.397539C0.150202 0.646341 0.150202 1.04926 0.399004 1.29807L3.10101 4.00007L0.399004 6.70208C0.150202 6.95088 0.150202 7.35381 0.399004 7.60261C0.647806 7.85141 1.05073 7.85141 1.29953 7.60261L4.00154 4.9006L6.70354 7.60261C6.95235 7.85141 7.35527 7.85141 7.60407 7.60261C7.85287 7.35381 7.85287 6.95088 7.60407 6.70208L4.90206 4.00007L7.60407 1.29807C7.85287 1.04926 7.85287 0.646341 7.60407 0.397539C7.3557 0.148737 6.95235 0.148737 6.70354 0.397539Z" fill="white"/>
<path d="M0.849154 8.00227C0.63177 8.00227 0.414386 7.91947 0.248801 7.75389C0.0883114 7.5934 0 7.38026 0 7.15354C0 6.92639 0.0883114 6.71325 0.248801 6.55319L2.80093 4.00105L0.248801 1.44892C0.0883114 1.28886 0 1.07572 0 0.848571C0 0.621847 0.0883114 0.408708 0.248801 0.248218C0.579547 -0.0825271 1.11876 -0.0825271 1.44951 0.248218L4.00164 2.80035L6.55377 0.248218C6.88409 -0.0825271 7.4233 -0.0829517 7.75447 0.248218C7.91496 0.408708 8.00327 0.621847 8.00327 0.848571C8.00327 1.07572 7.91496 1.28886 7.75447 1.44892L5.20234 4.00105L7.75447 6.55319C7.91496 6.71325 8.00327 6.92639 8.00327 7.15354C8.00327 7.38026 7.91496 7.5934 7.75447 7.75389C7.42415 8.08421 6.88494 8.08463 6.55377 7.75389L4.00164 5.20176L1.44951 7.75389C1.28434 7.91947 1.06654 8.00227 0.849154 8.00227ZM0.849154 0.424418C0.740462 0.424418 0.63177 0.465602 0.548978 0.548394C0.469157 0.628639 0.424577 0.735209 0.424577 0.848571C0.424577 0.961933 0.468733 1.0685 0.548978 1.14875L3.25098 3.85075C3.33378 3.93355 3.33378 4.06814 3.25098 4.15093L0.548978 6.85294C0.469157 6.93318 0.424577 7.03975 0.424577 7.15311C0.424577 7.26647 0.468733 7.37304 0.548978 7.45329C0.714987 7.61887 0.983319 7.61887 1.14933 7.45329L3.85134 4.75128C3.93413 4.66849 4.06872 4.66849 4.15151 4.75128L6.85352 7.45329C7.01953 7.61887 7.28786 7.61887 7.45387 7.45329C7.53369 7.37304 7.57827 7.26647 7.57827 7.15311C7.57827 7.03975 7.53412 6.93318 7.45387 6.85294L4.75186 4.15093C4.66907 4.06814 4.66907 3.93355 4.75186 3.85075L7.45387 1.14875C7.53369 1.0685 7.57827 0.961933 7.57827 0.848571C7.57827 0.735209 7.53412 0.628639 7.45387 0.548394C7.28786 0.382809 7.01953 0.382809 6.85352 0.548394L4.15151 3.2504C4.06872 3.33319 3.93413 3.33319 3.85134 3.2504L1.14933 0.548394C1.06654 0.465602 0.957845 0.424418 0.849154 0.424418Z" fill="white"/>
</svg>
