<svg width="20" height="20" viewBox="0 0 20 20" fill="none" xmlns="http://www.w3.org/2000/svg">
<path d="M13.75 20C14.4404 20 15 19.4404 15 18.75C15 18.0596 14.4404 17.5 13.75 17.5C13.0596 17.5 12.5 18.0596 12.5 18.75C12.5 19.4404 13.0596 20 13.75 20Z" fill="#B8502E"/>
<path d="M8.75 20C9.44036 20 10 19.4404 10 18.75C10 18.0596 9.44036 17.5 8.75 17.5C8.05964 17.5 7.5 18.0596 7.5 18.75C7.5 19.4404 8.05964 20 8.75 20Z" fill="#B8502E"/>
<path d="M19.7644 6.76875C19.5288 6.44281 19.1516 6.25 18.75 6.25H5.93031L4.97938 1.02656C4.87188 0.432188 4.35438 0 3.75 0H1.25C0.559063 0 0 0.559062 0 1.25C0 1.94094 0.559063 2.5 1.25 2.5H2.70625L5.02063 15.2234C5.12813 15.8178 5.64563 16.25 6.25 16.25H16.25C16.7884 16.25 17.2656 15.9056 17.4353 15.3956L19.9353 7.89563C20.0634 7.51469 19.9988 7.09469 19.7644 6.76875Z" fill="#B8502E"/>
</svg>
