<svg width="12" height="12" viewBox="0 0 12 12" fill="none" xmlns="http://www.w3.org/2000/svg">
<path d="M4.41061 1.90017H5.12968H6.84037H8.90855H10.7083C10.9973 1.90017 11.2876 1.90543 11.5766 1.90017H11.589C11.804 1.90017 12.0094 1.71871 11.9999 1.5057C11.9903 1.29137 11.8191 1.11122 11.589 1.11122C11.3493 1.11122 11.1096 1.11122 10.8699 1.11122C10.3001 1.11122 9.72897 1.11122 9.15919 1.11122C8.47026 1.11122 7.77995 1.11122 7.09102 1.11122C6.49111 1.11122 5.8912 1.11122 5.29129 1.11122C5.0023 1.11122 4.71193 1.10596 4.42294 1.11122C4.41883 1.11122 4.41472 1.11122 4.41061 1.11122C4.19557 1.11122 3.99012 1.29268 3.99971 1.5057C4.0093 1.72003 4.18051 1.90017 4.41061 1.90017Z" fill="#B8502E"/>
<path d="M0.411219 1.90028H1.89866H2.10959C2.32462 1.90028 2.53007 1.71882 2.52048 1.5058C2.5109 1.29147 2.33969 1.11133 2.10959 1.11133C1.61377 1.11133 1.11796 1.11133 0.622145 1.11133C0.552293 1.11133 0.481071 1.11133 0.411219 1.11133C0.196183 1.11133 -0.00926465 1.29279 0.000322917 1.5058C0.00991048 1.72013 0.181117 1.90028 0.411219 1.90028Z" fill="#B8502E"/>
<path d="M3.26007 2.21709C3.20939 2.21709 3.15872 2.21315 3.10804 2.20789C3.14502 2.21315 3.18063 2.21709 3.21761 2.22235C3.11352 2.20789 3.01353 2.18159 2.91629 2.14346C2.94916 2.15661 2.98203 2.16975 3.0149 2.1829C2.94916 2.15529 2.88479 2.12242 2.82452 2.08297C2.8163 2.07771 2.78069 2.0593 2.78069 2.05273C2.78069 2.05536 2.86972 2.12373 2.81493 2.07771C2.78754 2.05536 2.76152 2.033 2.73549 2.00802C2.71221 1.98567 2.6903 1.962 2.66838 1.93833C2.64647 1.91203 2.62181 1.86469 2.68756 1.96463C2.67797 1.95016 2.66701 1.93701 2.65605 1.92255C2.61496 1.86469 2.58209 1.80421 2.55196 1.73978C2.56566 1.77134 2.57935 1.80289 2.59305 1.83445C2.55196 1.74109 2.52457 1.6451 2.51087 1.54517C2.51635 1.58067 2.52046 1.61486 2.52594 1.65036C2.51361 1.55306 2.51361 1.45576 2.52594 1.35845C2.52046 1.39396 2.51635 1.42814 2.51087 1.46365C2.52594 1.36371 2.55333 1.26772 2.59305 1.17436C2.57935 1.20592 2.56566 1.23748 2.55196 1.26904C2.58072 1.20592 2.61496 1.14412 2.65605 1.08627C2.66153 1.07838 2.68071 1.04419 2.68756 1.04419C2.68482 1.04419 2.61359 1.12966 2.66153 1.07706C2.68482 1.05076 2.7081 1.02578 2.73412 1.0008C2.75741 0.978442 2.78206 0.957404 2.80672 0.936365C2.83411 0.915326 2.88342 0.891658 2.77932 0.954774C2.79439 0.945569 2.80809 0.93505 2.82315 0.924531C2.88342 0.885083 2.94642 0.853525 3.01353 0.824597C2.98066 0.837746 2.94779 0.850895 2.91492 0.864045C3.01216 0.824597 3.11215 0.798299 3.21624 0.78515C3.17926 0.790409 3.14365 0.794354 3.10667 0.799614C3.20802 0.78778 3.30938 0.78778 3.41073 0.799614C3.37375 0.794354 3.33814 0.790409 3.30116 0.78515C3.40525 0.799614 3.50524 0.825912 3.60248 0.864045C3.56961 0.850895 3.53674 0.837746 3.50387 0.824597C3.56961 0.85221 3.63399 0.885083 3.69425 0.924531C3.70247 0.92979 3.73808 0.948199 3.73808 0.954774C3.73808 0.952144 3.64905 0.883768 3.70384 0.92979C3.73123 0.952144 3.75725 0.974497 3.78328 0.999481C3.80656 1.02183 3.82848 1.0455 3.85039 1.06917C3.87231 1.09547 3.89696 1.14281 3.83122 1.04287C3.8408 1.05734 3.85176 1.07049 3.86272 1.08495C3.90381 1.14281 3.93668 1.20329 3.96681 1.26772C3.95311 1.23617 3.93942 1.20461 3.92572 1.17305C3.96681 1.26641 3.9942 1.3624 4.0079 1.46233C4.00242 1.42683 3.99831 1.39264 3.99284 1.35714C4.00516 1.45444 4.00516 1.55175 3.99284 1.64905C3.99831 1.61355 4.00242 1.57936 4.0079 1.54386C3.99284 1.64379 3.96544 1.73978 3.92572 1.83314C3.93942 1.80158 3.95311 1.77002 3.96681 1.73846C3.93805 1.80158 3.90381 1.86338 3.86272 1.92124C3.85724 1.92913 3.83806 1.96331 3.83122 1.96331C3.83396 1.96331 3.90518 1.87784 3.85724 1.93044C3.83396 1.95674 3.81067 1.98172 3.78465 2.00671C3.76136 2.02906 3.73671 2.0501 3.71206 2.07114C3.68466 2.09217 3.63536 2.11584 3.73945 2.05273C3.72438 2.06193 3.71069 2.07245 3.69562 2.08297C3.63536 2.12242 3.57235 2.15398 3.50524 2.1829C3.53811 2.16975 3.57098 2.15661 3.60385 2.14346C3.50661 2.1829 3.40662 2.2092 3.30253 2.22235C3.33951 2.21709 3.37512 2.21315 3.4121 2.20789C3.36143 2.21315 3.31075 2.21709 3.26007 2.21709C3.04504 2.21841 2.83959 2.39724 2.84918 2.61157C2.85876 2.82327 3.02997 3.00736 3.26007 3.00604C3.56824 3.00341 3.88874 2.91794 4.14076 2.74437C4.42017 2.55239 4.61877 2.30388 4.7393 1.99487C4.9557 1.43735 4.76258 0.743073 4.28183 0.365692C4.01064 0.153991 3.70521 0.0317037 3.35732 0.00409048C3.04914 -0.019578 2.72043 0.0606318 2.45608 0.214477C2.19996 0.364377 1.97534 0.589227 1.85207 0.85221C1.70552 1.16253 1.66306 1.48863 1.73291 1.82393C1.87535 2.509 2.54511 2.99947 3.26144 3.00473C3.47648 3.00604 3.68192 2.82195 3.67234 2.61025C3.66138 2.39592 3.49017 2.21841 3.26007 2.21709Z" fill="#B8502E"/>
<path d="M9.75228 6.39735H11.3616H11.5876C11.8027 6.39735 12.0081 6.21589 11.9985 6.00287C11.9889 5.78854 11.8177 5.6084 11.5876 5.6084C11.0507 5.6084 10.5138 5.6084 9.97828 5.6084C9.90294 5.6084 9.82761 5.6084 9.75228 5.6084C9.53725 5.6084 9.3318 5.78986 9.34139 6.00287C9.35097 6.2172 9.52218 6.39735 9.75228 6.39735Z" fill="#B8502E"/>
<path d="M0.411219 6.39724H1.11522H2.79167H4.82561H6.58424C6.86913 6.39724 7.15402 6.4025 7.43891 6.39724H7.45123C7.66627 6.39724 7.87172 6.21579 7.86213 6.00277C7.85254 5.78844 7.68133 5.60829 7.45123 5.60829C7.21702 5.60829 6.98144 5.60829 6.74723 5.60829C6.18841 5.60829 5.62959 5.60829 5.07078 5.60829C4.3928 5.60829 3.71482 5.60829 3.03684 5.60829C2.45063 5.60829 1.86442 5.60829 1.27821 5.60829C0.993321 5.60829 0.708433 5.60303 0.423546 5.60829C0.419437 5.60829 0.415328 5.60829 0.411219 5.60829C0.196183 5.60829 -0.00926465 5.78975 0.000322917 6.00277C0.00991048 6.2171 0.181117 6.39724 0.411219 6.39724Z" fill="#B8502E"/>
<path d="M8.60175 6.71416C8.55107 6.71416 8.50039 6.71022 8.44971 6.70496C8.48669 6.71022 8.52231 6.71416 8.55929 6.71942C8.45519 6.70496 8.35521 6.67866 8.25796 6.64053L8.35658 6.67997C8.29083 6.65236 8.22646 6.61949 8.1662 6.58004C8.15798 6.57478 8.12237 6.55637 8.12237 6.5498C8.12237 6.55243 8.21139 6.6208 8.15661 6.57478C8.12922 6.55243 8.10319 6.53007 8.07717 6.50509C8.05388 6.48274 8.03197 6.45907 8.01006 6.4354C7.98814 6.4091 7.96349 6.36176 8.02923 6.4617C8.01964 6.44723 8.00869 6.43409 7.99773 6.41962C7.95664 6.36177 7.92377 6.30128 7.89363 6.23685C7.90733 6.26841 7.92103 6.29996 7.93472 6.33152C7.89363 6.23816 7.86624 6.14217 7.85255 6.04224C7.85802 6.07774 7.86213 6.11193 7.86761 6.14743C7.85528 6.05013 7.85528 5.95283 7.86761 5.85552C7.86213 5.89103 7.85802 5.92521 7.85255 5.96072C7.86761 5.86078 7.895 5.76479 7.93472 5.67143C7.92103 5.70299 7.90733 5.73455 7.89363 5.76611C7.9224 5.70299 7.95664 5.64119 7.99773 5.58334C8.00321 5.57545 8.02238 5.54126 8.02923 5.54126C8.02649 5.54126 7.95527 5.62673 8.00321 5.57413C8.02649 5.54783 8.04978 5.52285 8.0758 5.49787C8.09908 5.47551 8.12374 5.45447 8.14839 5.43344C8.17578 5.4124 8.22509 5.38873 8.121 5.45184C8.13606 5.44264 8.14976 5.43212 8.16483 5.4216C8.22509 5.38215 8.28809 5.3506 8.35521 5.32167C8.32234 5.33482 8.28946 5.34797 8.25659 5.36111C8.35384 5.32167 8.45382 5.29537 8.55792 5.28222C8.52094 5.28748 8.48532 5.29142 8.44834 5.29668C8.5497 5.28485 8.65105 5.28485 8.75241 5.29668C8.71543 5.29142 8.67982 5.28748 8.64284 5.28222C8.74693 5.29668 8.84691 5.32298 8.94416 5.36111C8.91129 5.34797 8.87842 5.33482 8.84554 5.32167C8.91129 5.34928 8.97566 5.38215 9.03593 5.4216C9.04414 5.42686 9.07975 5.44527 9.07975 5.45184C9.07975 5.44921 8.99073 5.38084 9.04551 5.42686C9.07291 5.44921 9.09893 5.47157 9.12495 5.49655C9.14824 5.5189 9.17015 5.54257 9.19207 5.56624C9.21398 5.59254 9.23863 5.63988 9.17289 5.53994C9.18248 5.55441 9.19344 5.56756 9.20439 5.58202C9.24548 5.63988 9.27835 5.70036 9.30849 5.76479C9.29479 5.73324 9.28109 5.70168 9.2674 5.67012C9.30849 5.76348 9.33588 5.85947 9.34958 5.9594C9.3441 5.9239 9.33999 5.88971 9.33451 5.85421C9.34684 5.95151 9.34684 6.04881 9.33451 6.14612C9.33999 6.11062 9.3441 6.07643 9.34958 6.04093C9.33451 6.14086 9.30712 6.23685 9.2674 6.33021C9.28109 6.29865 9.29479 6.26709 9.30849 6.23553C9.27972 6.29865 9.24548 6.36045 9.20439 6.41831C9.19891 6.4262 9.17974 6.46038 9.17289 6.46038C9.17563 6.46038 9.24685 6.37491 9.19891 6.42751C9.17563 6.45381 9.15235 6.47879 9.12632 6.50378C9.10304 6.52613 9.07838 6.54717 9.05373 6.56821C9.02634 6.58925 8.97703 6.61291 9.08112 6.5498C9.06606 6.559 9.05236 6.56952 9.03729 6.58004C8.97703 6.61949 8.91403 6.65105 8.84691 6.67997C8.87978 6.66683 8.91266 6.65368 8.94553 6.64053C8.84828 6.67997 8.7483 6.70627 8.6442 6.71942C8.68118 6.71416 8.7168 6.71022 8.75378 6.70496C8.7031 6.71022 8.65242 6.71416 8.60175 6.71416C8.38671 6.71548 8.18126 6.89431 8.19085 7.10864C8.20044 7.32034 8.37164 7.50443 8.60175 7.50311C8.90992 7.50048 9.23042 7.41501 9.48243 7.24144C9.76184 7.04947 9.96044 6.80095 10.081 6.49194C10.2974 5.93442 10.1043 5.24014 9.62351 4.86276C9.35231 4.65106 9.04688 4.52877 8.69899 4.50116C8.39082 4.47749 8.0621 4.5577 7.79776 4.71155C7.54163 4.86145 7.31701 5.0863 7.19374 5.34928C7.04719 5.6596 7.00473 5.9857 7.07458 6.321C7.21703 7.00607 7.88679 7.49654 8.60311 7.5018C8.81815 7.50311 9.0236 7.31902 9.01401 7.10732C9.00305 6.89299 8.83185 6.71548 8.60175 6.71416Z" fill="#B8502E"/>
<path d="M6.60201 10.8942H7.09646H8.28532H9.72482H10.9698C11.1725 10.8942 11.3753 10.8982 11.578 10.8942H11.5875C11.8026 10.8942 12.008 10.7128 11.9984 10.4997C11.9889 10.2854 11.8177 10.1053 11.5875 10.1053C11.4232 10.1053 11.2575 10.1053 11.0931 10.1053C10.6973 10.1053 10.3001 10.1053 9.90425 10.1053C9.42487 10.1053 8.94412 10.1053 8.46474 10.1053C8.04974 10.1053 7.63473 10.1053 7.21973 10.1053C7.01702 10.1053 6.81431 10.1013 6.6116 10.1053C6.60886 10.1053 6.60612 10.1053 6.60201 10.1053C6.38698 10.1053 6.18153 10.2867 6.19112 10.4997C6.20071 10.7141 6.37191 10.8942 6.60201 10.8942Z" fill="#B8502E"/>
<path d="M0.411219 10.8944H1.72335H3.82165H4.30103C4.51607 10.8944 4.72152 10.713 4.71193 10.4999C4.70234 10.2856 4.53113 10.1055 4.30103 10.1055C3.86411 10.1055 3.42719 10.1055 2.9889 10.1055C2.28901 10.1055 1.59049 10.1055 0.890597 10.1055C0.730348 10.1055 0.570098 10.1055 0.411219 10.1055C0.196183 10.1055 -0.00926465 10.2869 0.000322917 10.4999C0.00991048 10.7143 0.181117 10.8944 0.411219 10.8944Z" fill="#B8502E"/>
<path d="M5.45148 11.211C5.4008 11.211 5.35012 11.207 5.29945 11.2018C5.33643 11.207 5.37204 11.211 5.40902 11.2162C5.30492 11.2018 5.20494 11.1755 5.10769 11.1374C5.14057 11.1505 5.17344 11.1637 5.20631 11.1768C5.14057 11.1492 5.07619 11.1163 5.01593 11.0769C5.00771 11.0716 4.9721 11.0532 4.9721 11.0466C4.9721 11.0493 5.06113 11.1176 5.00634 11.0716C4.97895 11.0493 4.95292 11.0269 4.9269 11.0019C4.90362 10.9796 4.8817 10.9559 4.85979 10.9322C4.83787 10.9059 4.81322 10.8586 4.87896 10.9585C4.86937 10.9441 4.85842 10.9309 4.84746 10.9164C4.80637 10.8586 4.7735 10.7981 4.74337 10.7337L4.78446 10.8283C4.74337 10.735 4.71597 10.639 4.70228 10.5391C4.70776 10.5746 4.71186 10.6088 4.71734 10.6443C4.70502 10.547 4.70502 10.4497 4.71734 10.3523C4.71186 10.3879 4.70776 10.422 4.70228 10.4575C4.71734 10.3576 4.74474 10.2616 4.78446 10.1683C4.77076 10.1998 4.75706 10.2314 4.74337 10.2629C4.77213 10.1998 4.80637 10.138 4.84746 10.0802C4.85294 10.0723 4.87211 10.0381 4.87896 10.0381C4.87622 10.0381 4.805 10.1236 4.85294 10.071C4.87622 10.0447 4.89951 10.0197 4.92553 9.99469C4.94881 9.97234 4.97347 9.9513 4.99812 9.93026C5.02552 9.90922 5.07482 9.88555 4.97073 9.94867C4.9858 9.93947 4.99949 9.92895 5.01456 9.91843C5.07482 9.87898 5.13783 9.84742 5.20494 9.81849C5.17207 9.83164 5.1392 9.84479 5.10632 9.85794C5.20357 9.81849 5.30355 9.7922 5.40765 9.77905C5.37067 9.78431 5.33506 9.78825 5.29808 9.79351C5.39943 9.78168 5.50078 9.78168 5.60214 9.79351C5.56516 9.78825 5.52955 9.78431 5.49257 9.77905C5.59666 9.79351 5.69665 9.81981 5.79389 9.85794C5.76102 9.84479 5.72815 9.83164 5.69528 9.81849C5.76102 9.84611 5.82539 9.87898 5.88566 9.91843C5.89387 9.92369 5.92949 9.9421 5.92949 9.94867C5.92949 9.94604 5.84046 9.87767 5.89524 9.92369C5.92264 9.94604 5.94866 9.96839 5.97468 9.99338C5.99797 10.0157 6.01988 10.0394 6.0418 10.0631C6.06371 10.0894 6.08837 10.1367 6.02262 10.0368C6.03221 10.0512 6.04317 10.0644 6.05412 10.0788C6.09521 10.1367 6.12809 10.1972 6.15822 10.2616C6.14452 10.2301 6.13082 10.1985 6.11713 10.1669C6.15822 10.2603 6.18561 10.3563 6.19931 10.4562C6.19383 10.4207 6.18972 10.3865 6.18424 10.351C6.19657 10.4483 6.19657 10.5456 6.18424 10.6429C6.18972 10.6074 6.19383 10.5733 6.19931 10.5378C6.18424 10.6377 6.15685 10.7337 6.11713 10.827C6.13082 10.7955 6.14452 10.7639 6.15822 10.7324C6.12945 10.7955 6.09521 10.8573 6.05412 10.9151C6.04865 10.923 6.02947 10.9572 6.02262 10.9572C6.02536 10.9572 6.09658 10.8717 6.04865 10.9243C6.02536 10.9506 6.00208 10.9756 5.97605 11.0006C5.95277 11.023 5.92812 11.044 5.90346 11.065C5.87607 11.0861 5.82676 11.1097 5.93086 11.0466C5.91579 11.0558 5.90209 11.0663 5.88703 11.0769C5.82676 11.1163 5.76376 11.1479 5.69664 11.1768C5.72952 11.1637 5.76239 11.1505 5.79526 11.1374C5.69801 11.1768 5.59803 11.2031 5.49394 11.2162C5.53092 11.211 5.56653 11.207 5.60351 11.2018C5.55283 11.207 5.50215 11.211 5.45148 11.211C5.23644 11.2123 5.03099 11.3911 5.04058 11.6055C5.05017 11.8172 5.22138 12.0013 5.45148 11.9999C5.75965 11.9973 6.08015 11.9118 6.33216 11.7383C6.61157 11.5463 6.81017 11.2978 6.9307 10.9888C7.14711 10.4312 6.95399 9.73697 6.47324 9.35959C6.20205 9.14789 5.89661 9.0256 5.54872 8.99799C5.24055 8.97432 4.91183 9.05453 4.64749 9.20837C4.39137 9.35827 4.16674 9.58312 4.04347 9.84611C3.89692 10.1564 3.85446 10.4825 3.92431 10.8178C4.06676 11.5029 4.73652 11.9934 5.45285 11.9986C5.66788 11.9999 5.87333 11.8158 5.86374 11.6041C5.85278 11.3898 5.68158 11.2123 5.45148 11.211Z" fill="#B8502E"/>
</svg>
