<svg width="23" height="24" viewBox="0 0 23 24" fill="none" xmlns="http://www.w3.org/2000/svg">
<path d="M20.3784 12.0073V21.4361C20.3784 22.8498 19.255 24 17.8743 24H14.2144C13.8098 24 13.4818 23.6641 13.4818 23.2499V17.2771C13.4818 16.158 12.5931 15.2475 11.5007 15.2475C10.4063 15.2475 9.51694 16.158 9.51694 17.2771V23.2499C9.51694 23.6642 9.18895 24 8.78435 24H5.12577C3.74569 24 2.62293 22.8499 2.62293 21.4361V12.0073C2.62293 11.593 2.95092 11.2572 3.35552 11.2572C3.76012 11.2572 4.08812 11.593 4.08812 12.0073V21.4361C4.08812 22.0227 4.5536 22.4998 5.12573 22.4998H8.05166V17.2771C8.05166 15.3308 9.59826 13.7473 11.4993 13.7473C13.401 13.7473 14.947 15.3308 14.947 17.2771V22.4998H17.8742C18.4471 22.4998 18.9131 22.0227 18.9131 21.4361V12.0073C18.9131 11.593 19.2411 11.2572 19.6457 11.2572C20.0503 11.2572 20.3784 11.593 20.3784 12.0073ZM22.7856 11.2445L20.1638 8.55896L12.0187 0.219728C11.7326 -0.0732428 11.2687 -0.0732428 10.9826 0.219728L0.21458 11.2444C-0.0715265 11.5373 -0.0715265 12.0122 0.21458 12.3051C0.500686 12.5981 0.964572 12.5981 1.25068 12.3051L11.5006 1.81087L19.1276 9.61956L21.7492 12.305C21.8923 12.4515 22.0798 12.5248 22.2674 12.5248C22.4548 12.5248 22.6423 12.4516 22.7853 12.3052C23.0715 12.0124 23.0716 11.5375 22.7856 11.2445Z" fill="#3B41C5"/>
</svg>
