<svg width="60" height="60" viewBox="0 0 60 60" fill="none" xmlns="http://www.w3.org/2000/svg">
<path d="M5.00323 37.3139C4.9119 35.9734 3.8137 34.9116 2.47008 34.9116C1.0511 34.9116 -0.0886405 36.0999 0.00543372 37.5159C1.06764 53.5024 6.28427 58.7191 22.2709 59.7814C23.6868 59.8754 24.8752 58.7356 24.8752 57.3166C24.8752 55.9731 23.8133 54.8749 22.4728 54.7836C19.882 54.6071 17.6856 54.3189 15.8137 53.9029C12.4233 53.1494 10.412 52.0446 9.07705 50.7096C7.74215 49.3749 6.63737 47.3634 5.88387 43.9731C5.46788 42.1011 5.17973 39.9046 5.00323 37.3139Z" fill="#3B41C5"/>
<path d="M54.7831 37.3139C54.8746 35.9734 55.9726 34.9116 57.3164 34.9116C58.7354 34.9116 59.8751 36.0999 59.7811 37.5159C58.7189 53.5026 53.5021 58.7191 37.5154 59.7814C36.0996 59.8754 34.9111 58.7356 34.9111 57.3166C34.9111 55.9731 35.9731 54.8749 37.3136 54.7836C39.9044 54.6071 42.1009 54.3189 43.9729 53.9029C47.3631 53.1494 49.3744 52.0446 50.7094 50.7096C52.0444 49.3749 53.1491 47.3634 53.9026 43.9731C54.3186 42.1011 54.6066 39.9046 54.7831 37.3139Z" fill="#3B41C5"/>
<path d="M59.7811 22.271C59.8751 23.6869 58.7354 24.8754 57.3164 24.8754C55.9726 24.8754 54.8746 23.8134 54.7831 22.4729C54.6066 19.8821 54.3186 17.6856 53.9026 15.8137C53.1491 12.4233 52.0444 10.412 50.7094 9.07706C49.3744 7.74216 47.3631 6.63738 43.9729 5.88388C42.1009 5.46788 39.9044 5.17971 37.3136 5.00321C35.9731 4.91191 34.9111 3.81371 34.9111 2.47008C34.9111 1.0511 36.0996 -0.0886401 37.5154 0.00543367C53.5021 1.06764 58.7189 6.28426 59.7811 22.271Z" fill="#3B41C5"/>
<path d="M5.00323 22.4729C4.9119 23.8134 3.8137 24.8754 2.47009 24.8754C1.0511 24.8754 -0.0886405 23.6869 0.00543372 22.271C1.06764 6.28428 6.28427 1.06765 22.2709 0.00543381C23.6868 -0.0886412 24.8752 1.0511 24.8752 2.47008C24.8752 3.8137 23.8133 4.9119 22.4728 5.00323C19.882 5.17973 17.6856 5.46788 15.8137 5.88388C12.4233 6.63738 10.412 7.74215 9.07705 9.07705C7.74215 10.412 6.63737 12.4233 5.88387 15.8137C5.46788 17.6856 5.17973 19.8821 5.00323 22.4729Z" fill="#3B41C5"/>
</svg>
