<svg width="19" height="19" viewBox="0 0 19 19" fill="none" xmlns="http://www.w3.org/2000/svg">
<path d="M15.7718 2.70599C14.0268 0.961028 11.7067 0 9.23892 0C6.77112 0 4.45103 0.961028 2.70599 2.70599C0.961028 4.45103 0 6.77112 0 9.23892C0 11.7067 0.961028 14.0268 2.70599 15.7718C4.45103 17.5168 6.77112 18.4778 9.23892 18.4778C11.7067 18.4778 14.0268 17.5168 15.7718 15.7718C17.5168 14.0268 18.4778 11.7067 18.4778 9.23892C18.4778 6.77112 17.5168 4.45103 15.7718 2.70599ZM5.78847 1.84962C5.48824 2.34946 5.21909 2.93823 4.98674 3.60809C4.86241 3.96649 4.75187 4.34157 4.65378 4.72939C4.00395 4.59228 3.38444 4.42577 2.80527 4.2315C3.59401 3.22038 4.61552 2.39956 5.78847 1.84962ZM2.17793 5.16022C2.87464 5.40931 3.62949 5.61899 4.42522 5.78699C4.25838 6.70749 4.16018 7.68606 4.13431 8.69757H1.10109C1.1855 7.41564 1.56704 6.21364 2.17793 5.16022ZM2.17584 13.3141C1.56618 12.2616 1.18543 11.0608 1.10109 9.78026H4.13431C4.16015 10.7909 4.2582 11.7687 4.42476 12.6885C3.62855 12.8561 2.87312 13.0654 2.17584 13.3141ZM2.80286 14.2432C3.38263 14.0492 4.00276 13.8829 4.65317 13.7461C4.75137 14.1348 4.86216 14.5107 4.98674 14.8698C5.21909 15.5396 5.48824 16.1284 5.78847 16.6282C4.61433 16.0777 3.59195 15.2558 2.80286 14.2432ZM8.69757 17.3767C8.39298 17.3567 8.09275 17.3204 7.79812 17.2677C7.00465 16.7783 6.21223 15.469 5.71709 13.5527C6.67144 13.4054 7.6744 13.3181 8.69757 13.2955V17.3767ZM8.69757 12.2124C7.59666 12.2359 6.51546 12.3313 5.48629 12.4934C5.33811 11.6706 5.24247 10.7621 5.21656 9.78026H8.69757V12.2124ZM8.69757 8.69757H5.21656C5.24247 7.71504 5.33822 6.80591 5.48658 5.9826C6.51546 6.14522 7.59652 6.24114 8.69757 6.2651V8.69757ZM8.69757 5.18209C7.67433 5.15896 6.67154 5.07123 5.71752 4.92344C6.2127 3.00806 7.0049 1.69931 7.79815 1.21012C8.09279 1.15739 8.39301 1.12116 8.69757 1.10109V5.18209ZM16.302 5.16369C16.9117 6.21631 17.2924 7.41708 17.3767 8.69757H14.3435C14.3177 7.68692 14.2196 6.70915 14.053 5.78934C14.8493 5.6217 15.6047 5.41242 16.302 5.16369ZM15.6749 4.23464C15.0952 4.42865 14.475 4.59492 13.8246 4.7317C13.7264 4.34305 13.6156 3.96721 13.4911 3.60809C13.2587 2.93823 12.9896 2.34946 12.6894 1.84962C13.8635 2.4001 14.8859 3.22207 15.6749 4.23464ZM9.78026 1.10109C10.0848 1.12116 10.385 1.15739 10.6797 1.21012C11.4731 1.69946 12.2656 3.00882 12.7607 4.92514C11.8064 5.07242 10.8034 5.15972 9.78026 5.18238V1.10109ZM9.78026 6.26539C10.8812 6.24194 11.9624 6.14651 12.9915 5.9844C13.1397 6.80724 13.2354 7.71576 13.2613 8.69761H9.78026V6.26539ZM9.78026 9.78026H13.2613C13.2354 10.7628 13.1396 11.6719 12.9913 12.4952C11.9624 12.3326 10.8814 12.2367 9.78026 12.2127V9.78026ZM10.6797 17.2677C10.3851 17.3204 10.0849 17.3567 9.78026 17.3767V13.2957C10.8035 13.3189 11.8063 13.4066 12.7603 13.5544C12.2651 15.4698 11.473 16.7785 10.6797 17.2677ZM12.6894 16.6282C12.9896 16.1284 13.2587 15.5397 13.4911 14.8698C13.6154 14.5114 13.726 14.1363 13.8241 13.7484C14.4739 13.8855 15.0934 14.0521 15.6726 14.2463C14.8838 15.2575 13.8623 16.0783 12.6894 16.6282ZM16.2999 13.3176C15.6032 13.0685 14.8483 12.8588 14.0526 12.6908C14.2195 11.7703 14.3177 10.7918 14.3435 9.78026H17.3767C17.2923 11.0622 16.9108 12.2642 16.2999 13.3176Z" fill="#3B41C5"/>
</svg>
