<svg width="13" height="13" viewBox="0 0 13 13" fill="none" xmlns="http://www.w3.org/2000/svg">
<path fill-rule="evenodd" clip-rule="evenodd" d="M8.98324 2.2987C9.36019 1.16782 8.51848 0 7.32639 0C6.76242 0 6.23305 0.272381 5.90526 0.731336L3.03947 4.74342H0.677632L0 5.42105V12.1974L0.677632 12.875H10.5834L12.6647 8.71235C13.2828 7.47626 13.0405 5.9834 12.0633 5.00616C11.4611 4.40405 10.6445 4.06579 9.79297 4.06579H8.39416L8.98324 2.2987ZM4.06582 5.63826L7.00808 1.51907C7.08154 1.41628 7.20008 1.35526 7.32639 1.35526C7.59338 1.35526 7.78194 1.61684 7.69746 1.87012L6.51386 5.42105H9.79297C10.2851 5.42105 10.757 5.61657 11.105 5.96451C11.6697 6.52921 11.8097 7.39197 11.4525 8.10628L9.74581 11.5197H4.06582V5.63826ZM2.71055 11.5197H1.35526V6.09868H2.71055V11.5197Z" fill="#878787"/>
</svg>
