<svg width="12" height="12" viewBox="0 0 12 12" fill="none" xmlns="http://www.w3.org/2000/svg">
<path fill-rule="evenodd" clip-rule="evenodd" d="M7.93333 1.66667C7.93333 0.666667 6.94533 0 6.17333 0C5.636 0 5.594 0.408 5.51133 1.21333C5.47467 1.56667 5.43067 1.996 5.33333 2.5C5.076 3.83467 4.18667 5.54 3.336 6.05V10C3.33333 11.5 3.83333 12 6 12H8.51534C9.966 12 10.3173 11.0447 10.448 10.6907L10.4567 10.6667C10.5327 10.4627 10.6953 10.302 10.882 10.12C11.0887 9.916 11.3247 9.68467 11.5 9.33333C11.7073 8.918 11.68 8.54867 11.6553 8.22C11.64 8.02067 11.626 7.83667 11.6667 7.66667C11.7093 7.48667 11.764 7.35 11.8167 7.21933C11.912 6.982 12 6.762 12 6.33333C12 5.33333 11.5013 4.668 10.4567 4.668H7.66667C7.66667 4.668 7.93333 2.66667 7.93333 1.66667ZM1 5.33333C0.734784 5.33333 0.48043 5.43869 0.292893 5.62623C0.105357 5.81376 0 6.06812 0 6.33333V11C5.58902e-09 11.2652 0.105357 11.5196 0.292893 11.7071C0.48043 11.8946 0.734784 12 1 12C1.26522 12 1.51957 11.8946 1.70711 11.7071C1.89464 11.5196 2 11.2652 2 11V6.33333C2 6.06812 1.89464 5.81376 1.70711 5.62623C1.51957 5.43869 1.26522 5.33333 1 5.33333Z" fill="#878787"/>
</svg>
