<svg width="11" height="14" viewBox="0 0 11 14" fill="none" xmlns="http://www.w3.org/2000/svg">
<path fill-rule="evenodd" clip-rule="evenodd" d="M5.84519 12.9833C5.73821 13.0527 5.59301 13.0623 5.47379 12.9941C4.18845 12.2652 3.10792 11.3892 2.25972 10.4381C1.08898 9.12881 0.350795 7.67639 0.0986138 6.27844C-0.158146 4.86008 0.0817953 3.49624 0.873518 2.3872C1.18526 1.94848 1.58418 1.54925 2.07019 1.20457C3.18739 0.410223 4.46357 -0.00804536 5.73363 0.000117228C6.95782 0.00827981 8.16518 0.415679 9.20904 1.2645C9.57587 1.56153 9.88458 1.90217 10.1368 2.27138C10.988 3.52077 11.1715 5.11488 10.797 6.73081C10.2129 9.26109 8.33776 11.6344 5.84519 12.9833ZM5.49215 2.52206C7.00215 2.52206 8.2248 3.61344 8.2248 4.95683C8.2248 6.30297 7.00061 7.39297 5.49215 7.39297C3.98215 7.39297 2.761 6.30297 2.761 4.95683C2.75791 3.61206 3.98215 2.52206 5.49215 2.52206Z" fill="#9F2102"/>
</svg>
