<svg width="60" height="60" viewBox="0 0 60 60" fill="none" xmlns="http://www.w3.org/2000/svg">
<g clip-path="url(#clip0_724_1959)">
<path d="M5.00323 37.5287C4.9119 36.1882 3.8137 35.1265 2.47008 35.1265C1.0511 35.1265 -0.0886405 36.3147 0.00543372 37.7307C1.06764 53.7172 6.28427 58.934 22.2709 59.9962C23.6868 60.0902 24.8752 58.9505 24.8752 57.5315C24.8752 56.188 23.8133 55.0897 22.4728 54.9985C19.882 54.822 17.6856 54.5337 15.8137 54.1177C12.4233 53.3642 10.412 52.2595 9.07705 50.9245C7.74215 49.5897 6.63737 47.5782 5.88387 44.188C5.46788 42.316 5.17973 40.1195 5.00323 37.5287Z" fill="#3B41C5"/>
<path d="M54.7833 37.5287C54.8748 36.1882 55.9728 35.1265 57.3165 35.1265C58.7355 35.1265 59.8753 36.3147 59.7813 37.7307C58.719 53.7175 53.5023 58.934 37.5155 59.9962C36.0998 60.0902 34.9113 58.9505 34.9113 57.5315C34.9113 56.188 35.9733 55.0897 37.3138 54.9985C39.9045 54.822 42.101 54.5337 43.973 54.1177C47.3633 53.3642 49.3745 52.2595 50.7095 50.9245C52.0445 49.5897 53.1493 47.5782 53.9028 44.188C54.3188 42.316 54.6068 40.1195 54.7833 37.5287Z" fill="#3B41C5"/>
<path d="M59.7813 22.4858C59.8753 23.9017 58.7355 25.0903 57.3165 25.0903C55.9728 25.0903 54.8748 24.0282 54.7833 22.6877C54.6068 20.0969 54.3188 17.9004 53.9028 16.0285C53.1493 12.6381 52.0445 10.6268 50.7095 9.2919C49.3745 7.957 47.3633 6.85223 43.973 6.09873C42.101 5.68273 39.9045 5.39455 37.3138 5.21805C35.9733 5.12675 34.9113 4.02855 34.9113 2.68492C34.9113 1.26594 36.0998 0.126204 37.5155 0.220277C53.5023 1.28248 58.719 6.4991 59.7813 22.4858Z" fill="#3B41C5"/>
<path d="M5.00323 22.6877C4.9119 24.0282 3.8137 25.0902 2.47009 25.0902C1.0511 25.0902 -0.0886405 23.9017 0.00543372 22.4858C1.06764 6.49912 6.28427 1.28249 22.2709 0.220278C23.6868 0.126203 24.8752 1.26594 24.8752 2.68492C24.8752 4.02855 23.8133 5.12675 22.4728 5.21807C19.882 5.39457 17.6856 5.68272 15.8137 6.09872C12.4233 6.85222 10.412 7.957 9.07705 9.29189C7.74215 10.6268 6.63737 12.6381 5.88387 16.0285C5.46788 17.9004 5.17973 20.0969 5.00323 22.6877Z" fill="#3B41C5"/>
<path d="M49.0113 31.9525L41.5328 26.4356C40.9266 25.9884 40.0675 26.4229 40.0675 27.1755V29.934H38.2285V19.7584C38.2286 18.2375 36.9911 17 35.4701 17H20.7584C19.2403 17 18 18.2372 18 19.7584C18 20.6049 18 39.7973 18 40.9644C18 41.8887 18.4592 42.7468 19.2284 43.2595L26.5842 48.1634C28.4154 49.3842 30.8728 48.0663 30.8728 45.8682V44.707H35.4702C36.9912 44.707 38.2286 43.4696 38.2286 41.9486V35.4509H40.0676V38.2093C40.0676 38.9673 40.9313 39.3931 41.533 38.9492L49.0114 33.4323C49.5091 33.0651 49.509 32.3197 49.0113 31.9525ZM27.6043 46.6332L20.2484 41.7293C19.992 41.5584 19.839 41.2724 19.839 40.9643C19.839 40.7036 19.839 23.2008 19.839 19.7584C19.839 19.6451 19.8605 19.537 19.8982 19.4367L28.3722 23.6738C28.674 23.8247 29.0337 24.1032 29.0337 24.5729V45.8682C29.0337 46.6033 28.2163 47.0414 27.6043 46.6332ZM36.3896 41.9486C36.3896 42.4556 35.9771 42.8681 35.4701 42.8681H30.8728V24.5729C30.8728 23.4895 30.2611 22.5623 29.1947 22.029L22.8145 18.839H35.4701C35.9771 18.839 36.3896 19.2515 36.3896 19.7585V29.9341H33.6312C33.1234 29.9341 32.7117 30.3458 32.7117 30.8536V34.5315C32.7117 35.0393 33.1234 35.451 33.6312 35.451H36.3896V41.9486ZM41.9065 36.3884V34.5314C41.9065 34.0236 41.4949 33.6119 40.987 33.6119H34.5507V31.7729H40.987C41.4949 31.7729 41.9065 31.3613 41.9065 30.8534V28.9965L46.9166 32.6925L41.9065 36.3884Z" fill="#3B41C5"/>
<path d="M24.5666 29.9316C24.0588 29.9316 23.6471 30.3433 23.6471 30.8511V34.529C23.6471 35.0369 24.0588 35.4485 24.5666 35.4485C25.0744 35.4485 25.4861 35.0369 25.4861 34.529V30.8511C25.486 30.3433 25.0743 29.9316 24.5666 29.9316Z" fill="#3B41C5"/>
</g>
<defs>
<clipPath id="clip0_724_1959">
<rect width="60" height="60" fill="white"/>
</clipPath>
</defs>
</svg>
