<svg width="19" height="19" viewBox="0 0 19 19" fill="none" xmlns="http://www.w3.org/2000/svg">
<path d="M18.148 8.75033L13.7716 5.5218C13.4168 5.26005 12.9141 5.51435 12.9141 5.9548V7.56904H11.8379V1.61425C11.8379 0.724172 11.1137 0 10.2236 0H1.61425C0.725835 0 0 0.724027 0 1.61425C0 2.10961 0 13.3412 0 14.0241C0 14.5651 0.268722 15.0672 0.718857 15.3673L5.02354 18.237C6.09518 18.9515 7.53325 18.1802 7.53325 16.8939V16.2143H10.2237C11.1138 16.2143 11.8379 15.4902 11.8379 14.6001V10.7976H12.9141V12.4119C12.9141 12.8554 13.4196 13.1046 13.7717 12.8449L18.1481 9.61633C18.4394 9.40144 18.4393 8.96522 18.148 8.75033ZM5.62049 17.3416L1.31581 14.4718C1.16574 14.3718 1.07619 14.2044 1.07619 14.0241C1.07619 13.8715 1.07619 3.62878 1.07619 1.61421C1.07619 1.54791 1.08881 1.48468 1.11082 1.426L6.0699 3.90556C6.24651 3.99384 6.45703 4.15682 6.45703 4.43169V16.8939C6.45703 17.3241 5.97866 17.5804 5.62049 17.3416ZM10.7617 14.6001C10.7617 14.8968 10.5204 15.1382 10.2237 15.1382H7.53325V4.43172C7.53325 3.79772 7.17531 3.2551 6.55124 2.94303L2.81748 1.07619H10.2237C10.5204 1.07619 10.7617 1.31758 10.7617 1.61428V7.56912H9.1475C8.85032 7.56912 8.6094 7.81004 8.6094 8.10721V10.2596C8.6094 10.5567 8.85032 10.7976 9.1475 10.7976H10.7617V14.6001ZM13.9903 11.3462V10.2595C13.9903 9.96234 13.7494 9.72142 13.4522 9.72142H9.68559V8.64523H13.4522C13.7494 8.64523 13.9903 8.40431 13.9903 8.10714V7.02046L16.9222 9.18336L13.9903 11.3462Z" fill="#3B41C5"/>
<path d="M3.84279 7.56934C3.54562 7.56934 3.3047 7.81026 3.3047 8.10743V10.2598C3.3047 10.5569 3.54562 10.7979 3.84279 10.7979C4.13997 10.7979 4.38089 10.5569 4.38089 10.2598V8.10743C4.38085 7.81026 4.13993 7.56934 3.84279 7.56934Z" fill="#3B41C5"/>
</svg>
