<svg width="18" height="18" viewBox="0 0 18 18" fill="none" xmlns="http://www.w3.org/2000/svg">
<path d="M18 4.15997V13.7205C18 14.7221 17.3572 15.7237 16.347 16.0879L11.7551 17.8179C11.4796 17.9089 11.2041 18 10.8368 18C10.3776 18 9.8266 17.8179 9.36742 17.5448C9.18373 17.3626 8.90824 17.1806 8.81635 16.9984H5.32656C3.94901 16.9984 2.75513 15.9058 2.75513 14.449V13.5384C2.75513 13.1742 3.03064 12.81 3.48982 12.81C3.94901 12.81 4.22452 13.0831 4.22452 13.5384V14.449C4.22452 15.0863 4.77554 15.5416 5.32656 15.5416H8.35716V2.42998H5.32656C4.6837 2.42998 4.22452 2.88524 4.22452 3.52261V4.43313C4.22452 4.79735 3.94901 5.16156 3.48982 5.16156C3.03064 5.16156 2.75513 4.79735 2.75513 4.43313V3.52261C2.75513 2.15682 3.85718 0.973129 5.32656 0.973129H8.81635C9.00004 0.791023 9.18373 0.608917 9.36742 0.426811C10.1021 -0.0284541 10.9286 -0.119507 11.7551 0.153652L16.347 1.88366C17.2654 2.15682 18 3.1584 18 4.15997Z" fill="#B8502E"/>
<path d="M2.57143 11.5367C2.38776 11.5367 2.20408 11.4457 2.11225 11.3547L0.275508 9.53361C0.183672 9.44253 0.183672 9.35154 0.0918361 9.35154C0.0918361 9.26046 0 9.16938 0 9.07839C0 8.98731 4.69387e-08 8.89623 0.0918361 8.80524C0.0918361 8.71416 0.183672 8.62308 0.275508 8.62308L2.11225 6.80204C2.38776 6.52888 2.84695 6.52888 3.12245 6.80204C3.39796 7.0752 3.39796 7.53048 3.12245 7.80363L2.47959 8.44101H6.24491C6.61225 8.44101 6.9796 8.71416 6.9796 9.16938C6.9796 9.62469 6.61225 9.71577 6.24491 9.71577H2.38776L3.03062 10.3531C3.30613 10.6262 3.30613 11.0815 3.03062 11.3547C2.93878 11.4457 2.7551 11.5367 2.57143 11.5367Z" fill="#B8502E"/>
</svg>
