<svg width="20" height="19" viewBox="0 0 20 19" fill="none" xmlns="http://www.w3.org/2000/svg">
<path d="M6.375 9C6.375 9.09946 6.33549 9.19484 6.26517 9.26517C6.19484 9.33549 6.09946 9.375 6 9.375C5.90054 9.375 5.80516 9.33549 5.73484 9.26517C5.66451 9.19484 5.625 9.09946 5.625 9C5.625 8.90054 5.66451 8.80516 5.73484 8.73483C5.80516 8.66451 5.90054 8.625 6 8.625C6.09946 8.625 6.19484 8.66451 6.26517 8.73483C6.33549 8.80516 6.375 8.90054 6.375 9ZM6.375 9H6M10.125 9C10.125 9.09946 10.0855 9.19484 10.0152 9.26517C9.94484 9.33549 9.84946 9.375 9.75 9.375C9.65054 9.375 9.55516 9.33549 9.48483 9.26517C9.41451 9.19484 9.375 9.09946 9.375 9C9.375 8.90054 9.41451 8.80516 9.48483 8.73483C9.55516 8.66451 9.65054 8.625 9.75 8.625C9.84946 8.625 9.94484 8.66451 10.0152 8.73483C10.0855 8.80516 10.125 8.90054 10.125 9ZM10.125 9H9.75M13.875 9C13.875 9.09946 13.8355 9.19484 13.7652 9.26517C13.6948 9.33549 13.5995 9.375 13.5 9.375C13.4005 9.375 13.3052 9.33549 13.2348 9.26517C13.1645 9.19484 13.125 9.09946 13.125 9C13.125 8.90054 13.1645 8.80516 13.2348 8.73483C13.3052 8.66451 13.4005 8.625 13.5 8.625C13.5995 8.625 13.6948 8.66451 13.7652 8.73483C13.8355 8.80516 13.875 8.90054 13.875 9ZM13.875 9H13.5M18.75 9C18.75 13.556 14.72 17.25 9.75 17.25C8.88718 17.251 8.02804 17.1377 7.195 16.913C6.02076 17.7389 4.58833 18.1141 3.16 17.97C3.00119 17.9547 2.84307 17.933 2.686 17.905C3.17887 17.3241 3.51547 16.6272 3.664 15.88C3.754 15.423 3.531 14.979 3.197 14.654C1.68 13.178 0.75 11.189 0.75 9C0.75 4.444 4.78 0.75 9.75 0.75C14.72 0.75 18.75 4.444 18.75 9Z" stroke="#888888" stroke-width="1.5" stroke-linecap="round" stroke-linejoin="round"/>
</svg>
