<svg width="16" height="19" viewBox="0 0 16 19" fill="none" xmlns="http://www.w3.org/2000/svg">
<path d="M7.11006 4.45104C7.11006 4.29814 7.17091 4.1515 7.27921 4.04338C7.38752 3.93526 7.53441 3.87452 7.68757 3.87452C8.45897 3.87538 9.19852 4.18167 9.74398 4.72619C10.2894 5.27071 10.5963 6.009 10.5971 6.77907C10.5971 6.93198 10.5363 7.07862 10.428 7.18674C10.3197 7.29486 10.1728 7.3556 10.0196 7.3556C9.86646 7.3556 9.71957 7.29486 9.61127 7.18674C9.50296 7.07862 9.44212 6.93198 9.44212 6.77907C9.44158 6.3147 9.25656 5.8695 8.92763 5.54115C8.5987 5.21279 8.15274 5.02809 7.68757 5.02756C7.53441 5.02756 7.38752 4.96682 7.27921 4.8587C7.17091 4.75059 7.11006 4.60394 7.11006 4.45104ZM2.97221 7.64098C2.96831 7.36266 2.96427 7.07487 2.96427 6.77915C2.96427 4.59463 4.46016 2.75253 6.48296 2.2195C6.34151 2.00289 6.26129 1.75215 6.25078 1.49379C6.24027 1.23542 6.29986 0.979019 6.42325 0.751667C6.54665 0.524315 6.72926 0.334457 6.95181 0.20215C7.17436 0.0698429 7.42857 0 7.68759 0C7.94661 0 8.20082 0.0698429 8.42337 0.20215C8.64592 0.334457 8.82853 0.524315 8.95193 0.751667C9.07532 0.979019 9.13491 1.23542 9.1244 1.49379C9.11389 1.75215 9.03367 2.00289 8.89222 2.2195C10.915 2.75253 12.4109 4.59463 12.4109 6.77907C12.4109 7.07479 12.4068 7.36259 12.4029 7.6409C12.3741 9.69984 12.3532 11.1951 13.8917 12.6842C14.3249 12.7469 14.7182 12.9709 14.9926 13.3113C15.2669 13.6517 15.402 14.0833 15.3705 14.519C15.3391 14.9548 15.1434 15.3626 14.823 15.6602C14.5026 15.9578 14.0812 16.1233 13.6435 16.1232H10.1343C10.1038 16.7505 9.83268 17.342 9.37717 17.7752C8.92166 18.2084 8.31667 18.45 7.68757 18.45C7.05847 18.45 6.45348 18.2084 5.99797 17.7752C5.54246 17.342 5.27135 16.7505 5.24081 16.1232H1.73169C1.294 16.1233 0.872525 15.9579 0.55207 15.6603C0.231616 15.3627 0.0359653 14.9549 0.00448655 14.5191C-0.0269922 14.0833 0.108037 13.6518 0.382405 13.3114C0.656772 12.9709 1.05012 12.7469 1.48329 12.6842C3.02181 11.1951 3.00112 9.70197 2.97221 7.64098ZM8.97664 16.1233H6.3985C6.42809 16.4442 6.57669 16.7425 6.81517 16.9596C7.05365 17.1768 7.36479 17.2972 7.68757 17.2972C8.01036 17.2972 8.3215 17.1768 8.55998 16.9596C8.79845 16.7425 8.94706 16.4442 8.97664 16.1233ZM14.2199 14.3948C14.2198 14.2422 14.159 14.0959 14.0509 13.9881C13.9428 13.8802 13.7963 13.8195 13.6435 13.8193H1.73169C1.5788 13.8193 1.43217 13.8799 1.32407 13.9879C1.21596 14.0958 1.15522 14.2422 1.15522 14.3948C1.15522 14.5474 1.21596 14.6938 1.32407 14.8017C1.43217 14.9096 1.5788 14.9703 1.73169 14.9703H13.6435C13.7963 14.9701 13.9428 14.9094 14.0509 14.8015C14.159 14.6936 14.2198 14.5474 14.2199 14.3948ZM7.40456 1.43691C7.40456 1.49279 7.42116 1.54742 7.45225 1.59388C7.48335 1.64034 7.52755 1.67655 7.57927 1.69794C7.63098 1.71932 7.68789 1.72492 7.74279 1.71401C7.79769 1.70311 7.84811 1.6762 7.88769 1.63669C7.92728 1.59718 7.95423 1.54684 7.96515 1.49203C7.97607 1.43722 7.97047 1.38042 7.94904 1.32879C7.92762 1.27716 7.89135 1.23304 7.84481 1.20199C7.79827 1.17095 7.74355 1.15438 7.68757 1.15438C7.61254 1.15447 7.54061 1.18427 7.48756 1.23724C7.4345 1.2902 7.40465 1.36201 7.40456 1.43691ZM3.93098 10.674C3.76953 11.3927 3.46233 12.0707 3.0283 12.6663H12.3467C11.9165 12.0758 11.6109 11.4043 11.4485 10.6924C11.2187 9.71555 11.2329 8.69998 11.248 7.6248C11.2519 7.35048 11.2559 7.0668 11.2559 6.77915C11.2559 5.8344 10.8799 4.92834 10.2107 4.2603C9.54155 3.59226 8.63394 3.21696 7.68757 3.21696C6.7412 3.21696 5.8336 3.59226 5.16441 4.2603C4.49523 4.92834 4.11929 5.8344 4.11929 6.77915C4.11929 7.0668 4.12326 7.35048 4.12712 7.62483C4.1421 8.69349 4.15629 9.70287 3.93098 10.674Z" fill="#3B41C5"/>
</svg>
