<svg width="19" height="18" viewBox="0 0 19 18" fill="none" xmlns="http://www.w3.org/2000/svg">
<path d="M9 0C4.03741 0 0 4.03741 0 9C0 13.9626 4.03741 18 9 18C13.9927 18 18.0546 13.9626 18.0546 9C18.0546 4.03741 13.9927 0 9 0ZM9.81821 16.3187V14.7274H8.18185V16.318C4.77389 15.9395 2.06057 13.2262 1.68208 9.81826H3.27272V8.1819H1.68208C2.06057 4.77394 4.77389 2.06063 8.18185 1.68213V3.27277H9.81821V1.68142C13.2543 2.05741 15.9907 4.77193 16.3722 8.1819H14.7818V9.81281H16.3722C15.9906 13.2228 13.2542 15.9428 9.81821 16.3187Z" fill="#878787"/>
<path d="M9.81805 8.18097V4.9082H8.18164V9.81733H11.4544V8.18097H9.81805Z" fill="#878787"/>
</svg>
