<svg width="14" height="18" viewBox="0 0 14 18" fill="none" xmlns="http://www.w3.org/2000/svg">
<path d="M12.0909 7.63634V5.0909C12.0909 3.74071 11.5546 2.44582 10.5998 1.49109C9.6451 0.536361 8.35021 0 7.00002 0C5.64983 0 4.35494 0.536361 3.40021 1.49109C2.44549 2.44582 1.90912 3.74071 1.90912 5.0909V7.63634C1.39247 7.67471 0.909192 7.90617 0.555446 8.28468C0.2017 8.66319 0.00341395 9.161 3.94069e-05 9.67906V15.75C-0.00163861 16.021 0.0502887 16.2896 0.152833 16.5405C0.255378 16.7913 0.406515 17.0194 0.597548 17.2116C0.788581 17.4038 1.01574 17.5564 1.26595 17.6605C1.51616 17.7646 1.78449 17.8181 2.05549 17.8181H11.9446C12.4897 17.8181 13.0125 17.6016 13.398 17.2161C13.7834 16.8306 14 16.3078 14 15.7627V9.69179C13.9998 9.17152 13.803 8.67056 13.4489 8.28935C13.0948 7.90814 12.6098 7.67488 12.0909 7.63634ZM7.00002 1.27272C8.01266 1.27272 8.98383 1.67499 9.69988 2.39104C10.4159 3.10709 10.8182 4.07825 10.8182 5.0909V7.63634H3.18185V5.0909C3.18185 4.07825 3.58412 3.10709 4.30017 2.39104C5.01621 1.67499 5.98738 1.27272 7.00002 1.27272ZM12.7273 15.7627C12.7273 15.8655 12.707 15.9673 12.6677 16.0622C12.6284 16.1572 12.5707 16.2435 12.498 16.3162C12.4253 16.3888 12.3391 16.4465 12.2441 16.4858C12.1491 16.5252 12.0473 16.5454 11.9446 16.5454H2.05549C1.9527 16.5454 1.85092 16.5252 1.75595 16.4858C1.66099 16.4465 1.5747 16.3888 1.50202 16.3162C1.42934 16.2435 1.37168 16.1572 1.33234 16.0622C1.29301 15.9673 1.27276 15.8655 1.27276 15.7627V9.69179C1.27276 9.4842 1.35523 9.28511 1.50202 9.13832C1.64881 8.99153 1.8479 8.90907 2.05549 8.90907H11.9446C12.1521 8.90907 12.3512 8.99153 12.498 9.13832C12.6448 9.28511 12.7273 9.4842 12.7273 9.69179V15.7627Z" fill="#767676"/>
</svg>
