<svg width="16" height="18" viewBox="0 0 16 18" fill="none" xmlns="http://www.w3.org/2000/svg">
<path d="M7.77273 9C8.9507 9 10.0804 8.52589 10.9134 7.68198C11.7463 6.83807 12.2143 5.69347 12.2143 4.5C12.2143 3.30653 11.7463 2.16193 10.9134 1.31802C10.0804 0.474106 8.9507 0 7.77273 0C6.59475 0 5.46502 0.474106 4.63207 1.31802C3.79912 2.16193 3.33117 3.30653 3.33117 4.5C3.33117 5.69347 3.79912 6.83807 4.63207 7.68198C5.46502 8.52589 6.59475 9 7.77273 9ZM6.18695 10.6875C2.76903 10.6875 0 13.493 0 16.9559C0 17.5324 0.461506 18 1.03058 18H14.5149C15.0839 18 15.5455 17.5324 15.5455 16.9559C15.5455 13.493 12.7764 10.6875 9.3585 10.6875H6.18695Z" fill="#B8502E"/>
</svg>
