<svg width="17" height="16" viewBox="0 0 17 16" fill="none" xmlns="http://www.w3.org/2000/svg">
<path d="M11.5713 10.9329L11.9652 10.5412L11.0505 9.62127L10.6566 10.013L11.5713 10.9329ZM13.2881 10.3771L14.9404 11.2754L15.56 10.1357L13.9077 9.23745L13.2881 10.3771ZM15.2585 13.0606L14.0299 14.2822L14.9445 15.2021L16.1731 13.9805L15.2585 13.0606ZM13.2813 14.6755C12.0273 14.7924 8.7831 14.6882 5.27058 11.1956L4.35589 12.1156C8.18895 15.9269 11.8371 16.113 13.4016 15.9672L13.2813 14.6755ZM5.27058 11.1956C1.92243 7.86649 1.36781 5.06641 1.29877 3.85165L0.00358804 3.92526C0.0904707 5.45416 0.777221 8.55725 4.35589 12.1156L5.27058 11.1956ZM6.46003 5.85062L6.70807 5.60398L5.7934 4.68407L5.54536 4.9307L6.46003 5.85062ZM6.90551 2.46007L5.81498 1.00332L4.77648 1.78077L5.867 3.23753L6.90551 2.46007ZM2.14714 0.686251L0.789675 2.03601L1.70437 2.95593L3.06184 1.60617L2.14714 0.686251ZM6.0027 5.39066C5.54535 4.9307 5.54473 4.93132 5.54411 4.93194C5.5439 4.93215 5.54328 4.93278 5.54286 4.9332C5.54201 4.93406 5.54114 4.93492 5.54027 4.93581C5.53851 4.9376 5.5367 4.93946 5.53483 4.9414C5.53109 4.94528 5.52712 4.94949 5.52296 4.95402C5.51461 4.96307 5.50545 4.97343 5.49564 4.98514C5.47604 5.00853 5.45382 5.03734 5.43047 5.0718C5.38365 5.1409 5.33265 5.23225 5.28936 5.34714C5.20103 5.58155 5.15368 5.89057 5.21305 6.27322C5.32914 7.02156 5.84451 8.01006 7.16471 9.32272L8.07937 8.40278C6.84393 7.17434 6.54963 6.42677 6.49497 6.07434C6.46894 5.90662 6.49592 5.82407 6.50336 5.80453C6.50785 5.79244 6.51002 5.7912 6.50448 5.79946C6.50171 5.8035 6.49713 5.80982 6.48995 5.81834C6.48641 5.8226 6.48217 5.82743 6.47724 5.83281C6.47473 5.8355 6.47214 5.83833 6.46919 5.84129C6.46781 5.84278 6.46634 5.84429 6.46478 5.84585C6.46401 5.84663 6.46323 5.84742 6.46245 5.84821C6.4621 5.84861 6.4615 5.84922 6.46124 5.84941C6.46063 5.85002 6.46003 5.85062 6.0027 5.39066ZM7.16471 9.32272C8.48533 10.6358 9.47843 11.1469 10.228 11.2619C10.611 11.3206 10.9199 11.2737 11.1542 11.1865C11.269 11.1437 11.3605 11.0932 11.4297 11.0469C11.4643 11.0237 11.4932 11.0017 11.5166 10.9822C11.5284 10.9725 11.5388 10.9634 11.5478 10.9551C11.5524 10.951 11.5567 10.9471 11.5606 10.9434C11.5625 10.9415 11.5644 10.9396 11.5662 10.9379C11.567 10.937 11.5679 10.9362 11.5688 10.9353C11.5692 10.9349 11.5699 10.9343 11.5701 10.9341C11.5707 10.9335 11.5713 10.9329 11.1139 10.4729C10.6566 10.013 10.6572 10.0124 10.6578 10.0117C10.658 10.0116 10.6586 10.011 10.659 10.0105C10.6598 10.0098 10.6606 10.009 10.6614 10.0082C10.663 10.0067 10.6645 10.0053 10.666 10.0038C10.669 10.0009 10.6718 9.99834 10.6745 9.99583C10.6799 9.99099 10.6847 9.98675 10.689 9.98329C10.6975 9.9762 10.7038 9.9717 10.7077 9.96902C10.7158 9.96366 10.7141 9.96608 10.7013 9.97084C10.6801 9.97871 10.5953 10.0058 10.4248 9.97958C10.0673 9.92483 9.31446 9.63078 8.07937 8.40278L7.16471 9.32272ZM5.81498 1.00332C4.93343 -0.174247 3.19995 -0.360579 2.14714 0.686251L3.06184 1.60617C3.52166 1.14895 4.33832 1.19549 4.77648 1.78077L5.81498 1.00332ZM1.29877 3.85165C1.28176 3.55232 1.41904 3.23964 1.70437 2.95593L0.789675 2.03601C0.324974 2.49807 -0.0403549 3.15216 0.00358804 3.92526L1.29877 3.85165ZM14.0299 14.2822C13.7922 14.5186 13.5374 14.6517 13.2813 14.6755L13.4016 15.9672C14.037 15.9079 14.5575 15.587 14.9445 15.2021L14.0299 14.2822ZM6.70807 5.60398C7.55951 4.75736 7.62282 3.41823 6.90551 2.46007L5.867 3.23753C6.21597 3.70366 6.16408 4.31549 5.7934 4.68407L6.70807 5.60398ZM14.9404 11.2754C15.6477 11.6599 15.7578 12.564 15.2585 13.0606L16.1731 13.9805C17.3323 12.828 16.9749 10.9048 15.56 10.1357L14.9404 11.2754ZM11.9652 10.5412C12.2973 10.211 12.8319 10.1292 13.2881 10.3771L13.9077 9.23745C12.9705 8.72797 11.8075 8.86868 11.0505 9.62127L11.9652 10.5412Z" fill="#767676"/>
</svg>
