<svg width="17" height="19" viewBox="0 0 17 19" fill="none" xmlns="http://www.w3.org/2000/svg">
<path d="M8.2845 0C8.2845 0 6.02559 3.28767 0 3.28767C0 14.4667 8.2845 18.41 8.2845 18.41C8.2845 18.41 16.569 14.4667 16.569 3.28767C10.5434 3.28767 8.2845 0 8.2845 0ZM8.2845 1.66425C8.66006 2.03888 8.63935 2.16857 9.36287 2.61885C10.6221 3.40414 12.6242 4.04775 15.0971 4.2891C14.8569 9.02369 13.1102 12.2645 11.3277 14.3178C9.97178 15.8764 8.92517 16.5728 8.2845 16.9511C7.64521 16.5728 6.59722 15.8764 5.24271 14.3178C3.45878 12.2645 1.71213 9.02369 1.47326 4.2891C3.9448 4.04895 5.94689 3.40414 7.20613 2.62005C7.92965 2.16737 7.91032 2.04009 8.2845 1.66425ZM6.90375 4.48843V8.0907L7.59413 10.4922H8.97488L9.66525 8.0907V4.48843H6.90375ZM8.2845 11.693C7.9183 11.693 7.5671 11.8195 7.30816 12.0447C7.04922 12.2698 6.90375 12.5753 6.90375 12.8937C6.90375 13.2122 7.04922 13.5176 7.30816 13.7428C7.5671 13.968 7.9183 14.0945 8.2845 14.0945C8.6507 14.0945 9.0019 13.968 9.26084 13.7428C9.51978 13.5176 9.66525 13.2122 9.66525 12.8937C9.66525 12.5753 9.51978 12.2698 9.26084 12.0447C9.0019 11.8195 8.6507 11.693 8.2845 11.693Z" fill="#3B41C5"/>
</svg>
