<svg width="26" height="20" viewBox="0 0 26 20" fill="none" xmlns="http://www.w3.org/2000/svg">
<g filter="url(#filter0_d_351_21748)">
<path d="M21.9727 4H8.4729V16H21.9727V4Z" fill="#8D1B3D"/>
<path fill-rule="evenodd" clip-rule="evenodd" d="M8.48349 4.00335L10.583 4.66667L8.48349 5.32998V5.33669L10.583 6.00001L8.48349 6.66331V6.67002L10.583 7.33335L8.48349 7.99666V8.00336L10.583 8.66667L8.48349 9.32999V9.3367L10.583 10L8.48349 10.6633V10.6701L10.583 11.3334L8.48349 11.9967V12.0033L10.583 12.6667L8.48349 13.33V13.3367L10.583 14L8.48349 14.6634V14.67L10.583 15.3333L8.48349 15.9966V16H8.47291H4V4H8.47291H8.48349V4.00335Z" fill="white"/>
</g>
<defs>
<filter id="filter0_d_351_21748" x="0" y="0" width="25.9727" height="20" filterUnits="userSpaceOnUse" color-interpolation-filters="sRGB">
<feFlood flood-opacity="0" result="BackgroundImageFix"/>
<feColorMatrix in="SourceAlpha" type="matrix" values="0 0 0 0 0 0 0 0 0 0 0 0 0 0 0 0 0 0 127 0" result="hardAlpha"/>
<feOffset/>
<feGaussianBlur stdDeviation="2"/>
<feComposite in2="hardAlpha" operator="out"/>
<feColorMatrix type="matrix" values="0 0 0 0 0 0 0 0 0 0 0 0 0 0 0 0 0 0 0.25 0"/>
<feBlend mode="normal" in2="BackgroundImageFix" result="effect1_dropShadow_351_21748"/>
<feBlend mode="normal" in="SourceGraphic" in2="effect1_dropShadow_351_21748" result="shape"/>
</filter>
</defs>
</svg>
