<svg width="12" height="14" viewBox="0 0 12 14" fill="none" xmlns="http://www.w3.org/2000/svg">
<path fill-rule="evenodd" clip-rule="evenodd" d="M0.636364 0C0.284913 0 0 0.284913 0 0.636364V13.3636C0 13.7151 0.284913 14 0.636364 14C0.987815 14 1.27273 13.7151 1.27273 13.3636V8.0171C1.56929 7.86946 2.0381 7.66366 2.54069 7.53805C3.44216 7.31271 4.16562 7.39588 4.56146 7.98955C5.30027 9.09771 6.71122 9.19533 7.79711 9.08715C8.94301 8.97298 10.0767 8.59772 10.6498 8.38575C11.1534 8.19955 11.4545 7.72138 11.4545 7.21687V3.00578C11.4545 2.01853 10.4095 1.44215 9.57657 1.81988C8.90114 2.12621 8.0038 2.4683 7.19288 2.58128C6.34448 2.6995 5.85175 2.53954 5.62036 2.19255C4.78552 0.94031 3.35719 0.792056 2.33351 0.877361C1.94053 0.910115 1.57538 0.978829 1.27273 1.05158V0.636364C1.27273 0.284913 0.987815 0 0.636364 0ZM1.27273 2.36795V6.62117C1.55326 6.50663 1.88119 6.391 2.23203 6.30331C3.23965 6.05144 4.74346 5.96826 5.62036 7.2835C5.92493 7.74035 6.62677 7.9247 7.67092 7.82072C8.63915 7.72425 9.63595 7.40225 10.1818 7.20185V3.00578C10.1818 2.97687 10.1233 2.96942 10.1023 2.97898C9.39114 3.30148 8.36156 3.70346 7.36852 3.84183C6.41302 3.97498 5.2248 3.89359 4.56146 2.89856C4.12357 2.24181 3.32462 2.07191 2.43921 2.14569C1.98803 2.18329 1.56817 2.28217 1.27273 2.36795Z" fill="#878787"/>
</svg>
