<svg width="26" height="27" viewBox="0 0 26 27" fill="none" xmlns="http://www.w3.org/2000/svg">
<rect opacity="0.8" width="25.9724" height="26.9" rx="5" fill="white"/>
<path d="M17.6261 4.6377H8.35025C7.59821 4.65474 6.88346 4.96866 6.36208 5.5109C5.8407 6.05313 5.55505 6.77963 5.56749 7.53176V19.4234C5.54876 19.8326 5.66599 20.2365 5.90091 20.5721C6.13582 20.9077 6.47521 21.1561 6.86611 21.2786C7.21336 21.3955 7.5881 21.403 7.93976 21.3002C8.29142 21.1973 8.60306 20.9891 8.8326 20.7035L12.9882 16.9931L17.1438 20.7035C17.3172 20.9067 17.5337 21.0687 17.7776 21.1778C18.0215 21.2869 18.2866 21.3404 18.5537 21.3342C18.7462 21.3351 18.9374 21.3038 19.1195 21.2415C19.5104 21.119 19.8498 20.8706 20.0847 20.535C20.3197 20.1994 20.4369 19.7955 20.4182 19.3863V7.53176C20.4306 6.77806 20.1436 6.05018 19.6203 5.50768C19.0969 4.96518 18.3798 4.65233 17.6261 4.6377Z" fill="#BC8C1C"/>
</svg>
