<svg width="26" height="23" viewBox="0 0 26 23" fill="none" xmlns="http://www.w3.org/2000/svg">
<path d="M22.5624 23H3.14346C1.41015 23 0 21.5337 0 19.734C0 19.0919 0.172597 18.4862 0.499429 17.9783L10.1777 1.56208C10.7194 0.605666 11.7476 0 12.8529 0C13.9583 0 14.9865 0.605666 15.5392 1.58508L25.2358 18.0263C25.5333 18.4863 25.7059 19.0919 25.7059 19.734C25.7059 21.5337 24.2957 23 22.5624 23ZM12.8529 2.875C12.6914 2.875 12.583 2.967 12.5371 3.04558L2.7542 19.734C2.7542 19.9448 2.93231 20.125 3.14346 20.125H22.5624C22.7736 20.125 22.9517 19.9448 22.9517 19.734C22.9517 19.6707 22.9407 19.6133 22.9205 19.5845L13.1798 3.0705C13.1229 2.967 13.0145 2.875 12.8529 2.875Z" fill="#B8502E"/>
<path d="M12.8529 14.394C12.0015 14.394 11.3105 13.8018 11.3105 13.072V9.54663C11.3105 8.81687 12.0015 8.22461 12.8529 8.22461C13.7043 8.22461 14.3953 8.81687 14.3953 9.54663V13.072C14.3953 13.8018 13.7043 14.394 12.8529 14.394Z" fill="#B8502E"/>
<path d="M12.8529 18.5076C13.7047 18.5076 14.3953 17.817 14.3953 16.9652C14.3953 16.1134 13.7047 15.4229 12.8529 15.4229C12.0011 15.4229 11.3105 16.1134 11.3105 16.9652C11.3105 17.817 12.0011 18.5076 12.8529 18.5076Z" fill="#B8502E"/>
</svg>
