<svg width="15" height="17" viewBox="0 0 15 17" fill="none" xmlns="http://www.w3.org/2000/svg">
<path fill-rule="evenodd" clip-rule="evenodd" d="M8.58583 2.77778C8.58583 1.24365 9.83517 0 11.3763 0C12.9173 0 14.1667 1.24365 14.1667 2.77778C14.1667 4.3119 12.9173 5.55556 11.3763 5.55556C10.5981 5.55556 9.89483 5.2383 9.38925 4.72789L5.52642 7.35792C5.56208 7.53542 5.58083 7.71875 5.58083 7.906C5.58083 8.27683 5.5075 8.63133 5.37466 8.95533L9.61025 11.7382C10.091 11.3468 10.7061 11.1111 11.3763 11.1111C12.9173 11.1111 14.1667 12.3547 14.1667 13.8889C14.1667 15.423 12.9173 16.6667 11.3763 16.6667C9.83517 16.6667 8.58583 15.423 8.58583 13.8889C8.58583 13.4871 8.67183 13.1046 8.82642 12.7592L4.62506 9.99892C4.13497 10.4248 3.493 10.6838 2.7904 10.6838C1.24931 10.6838 0 9.44008 0 7.906C0 6.37186 1.24931 5.12821 2.7904 5.12821C3.67658 5.12821 4.46544 5.53937 4.97621 6.17932L8.71992 3.63035C8.63283 3.36133 8.58583 3.07467 8.58583 2.77778Z" fill="#B8502E"/>
</svg>
