<svg width="14" height="14" viewBox="0 0 14 14" fill="none" xmlns="http://www.w3.org/2000/svg">
<path d="M3.20117 14C2.99481 14 2.78996 13.935 2.61309 13.8061C2.29481 13.5738 2.14492 13.1896 2.22236 12.8034L2.95734 9.12848L0.292743 6.46388C0.0344273 6.20557 -0.0620038 5.82784 0.0399234 5.47759C0.141851 5.12734 0.426647 4.86103 0.782393 4.78208L4.17097 4.02912L6.12358 0.514632C6.29995 0.196859 6.63471 0 6.99745 0C7.36019 0 7.69495 0.196859 7.87083 0.513633L9.82343 4.02812L13.212 4.78109C13.5678 4.86003 13.8526 5.12634 13.9545 5.47659C14.0564 5.82684 13.96 6.20457 13.7017 6.46288L11.0371 9.12748L11.772 12.8019C11.849 13.1886 11.6991 13.5728 11.3813 13.8051C11.0625 14.038 10.6513 14.0635 10.3071 13.8716L6.99745 12.0339L3.68782 13.8726C3.53443 13.958 3.36705 14 3.20117 14ZM6.99745 10.9627C7.08089 10.9627 7.16483 10.9837 7.23978 11.0256L10.7917 12.9992L10.0048 9.06253C9.97233 8.89864 10.0233 8.72927 10.1412 8.61135L12.9952 5.75739L9.38675 4.95546C9.24735 4.92448 9.12743 4.83555 9.05848 4.71064L6.99545 0.997288L4.93543 4.71064C4.86598 4.83555 4.74656 4.92448 4.60716 4.95546L0.998738 5.75739L3.8527 8.61135C3.97062 8.72927 4.02208 8.89864 3.9891 9.06253L3.20166 12.9992L6.75413 11.0256C6.83007 10.9837 6.91401 10.9627 6.99745 10.9627Z" fill="#B8502E"/>
</svg>
