<svg width="8" height="10" viewBox="0 0 8 10" fill="none" xmlns="http://www.w3.org/2000/svg">
<path d="M7.38462 8.75H7.07692C7.01538 7.1875 6.70769 6 5.04615 5C6.64615 4 7.01538 2.8125 7.07692 1.25H7.38462C7.75385 1.25 8 1 8 0.625C8 0.25 7.75385 0 7.38462 0H0.615385C0.246154 0 0 0.25 0 0.625C0 1 0.246154 1.25 0.615385 1.25H0.923077C0.984615 2.8125 1.29231 4 2.95385 5C1.35385 6 0.984615 7.1875 0.923077 8.75H0.615385C0.246154 8.75 0 9 0 9.375C0 9.75 0.246154 10 0.615385 10H7.38462C7.75385 10 8 9.75 8 9.375C8 9 7.75385 8.75 7.38462 8.75Z" fill="white"/>
</svg>
