<svg width="14" height="14" viewBox="0 0 14 14" fill="none" xmlns="http://www.w3.org/2000/svg">
<path fill-rule="evenodd" clip-rule="evenodd" d="M7 0C3.13399 0 0 3.13399 0 7C0 8.148 0.276763 9.23274 0.767462 10.1898L0.0142625 13.3534C-0.00646389 13.4406 -0.0045169 13.5317 0.019918 13.6179C0.0443529 13.7042 0.0904622 13.7828 0.153855 13.8461C0.217248 13.9095 0.295813 13.9556 0.38207 13.9801C0.468327 14.0045 0.559403 14.0065 0.646625 13.9857L3.81019 13.2325C4.76726 13.7232 5.852 14 7 14C10.866 14 14 10.866 14 7C14 3.13399 10.866 0 7 0ZM1.05 7C1.05 3.71394 3.71394 1.05 7 1.05C10.2861 1.05 12.95 3.71394 12.95 7C12.95 10.2861 10.2861 12.95 7 12.95C5.96015 12.95 4.984 12.6837 4.13464 12.216C4.02034 12.153 3.88671 12.1349 3.75979 12.1651L1.23331 12.7667L1.83488 10.2402C1.86509 10.1133 1.84697 9.97966 1.78404 9.86536C1.31626 9.01591 1.05 8.03985 1.05 7ZM5.07701 8.92299C6.12483 9.97071 7.52194 10.6736 9.0804 10.8409C10.1108 10.9514 10.85 10.1025 10.85 9.22066V8.60851C10.85 8.2518 10.735 7.90458 10.5221 7.61839C10.3092 7.3322 10.0096 7.12228 9.66796 7.01977L9.61922 7.00516L9.56935 6.99536L8.86742 6.85711C8.64171 6.79869 8.40621 6.7885 8.17628 6.82722C7.94636 6.86593 7.72719 6.95268 7.53305 7.08181C7.30456 6.90182 7.09818 6.69544 6.91819 6.46695C7.04735 6.2728 7.13414 6.0536 7.17287 5.82364C7.2116 5.59369 7.20142 5.35815 7.14298 5.1324L7.00455 4.43056L6.99475 4.38069L6.98014 4.33195C6.87764 3.99032 6.66774 3.69083 6.38158 3.47791C6.09542 3.265 5.74825 3.15001 5.39157 3.15H4.77925C3.89751 3.15 3.0485 3.88902 3.15901 4.91951C3.32631 6.47789 4.02911 7.87517 5.07701 8.92299ZM8.02156 8.03232C8.09927 7.95464 8.19655 7.89944 8.3031 7.87259C8.40964 7.84574 8.52147 7.84824 8.62671 7.87981L9.36635 8.0255C9.4917 8.06315 9.60159 8.14019 9.6797 8.24521C9.75781 8.35023 9.8 8.47763 9.8 8.60851V9.22066C9.8 9.55675 9.52665 9.83272 9.19249 9.79685C8.35758 9.70764 7.55348 9.43154 6.83987 8.98905C6.46975 8.75972 6.12737 8.48839 5.81954 8.18046C5.51161 7.87263 5.24028 7.53025 5.01095 7.16013C4.56848 6.44648 4.29239 5.64236 4.20315 4.80743C4.16728 4.47326 4.44325 4.2 4.77925 4.2H5.39149C5.52234 4.20003 5.64971 4.24225 5.75468 4.32038C5.85965 4.39851 5.93665 4.5084 5.97424 4.63374L6.1201 5.3732C6.15168 5.47845 6.15418 5.5903 6.12733 5.69686C6.10048 5.80342 6.04528 5.90072 5.96759 5.97844L5.86959 6.07644C5.80473 6.14101 5.7581 6.22158 5.7344 6.30997C5.70185 6.43274 5.71655 6.56556 5.78716 6.67949C5.97933 6.98982 6.20674 7.27688 6.46485 7.53497C6.72295 7.79313 7.01005 8.02057 7.32043 8.21275C7.43435 8.28327 7.56709 8.29806 7.68994 8.26551C7.77833 8.2418 7.85889 8.19516 7.92347 8.13032L8.02156 8.03232Z" fill="#B8502E"/>
</svg>
