<svg viewBox="0 0 14 14"><path d="M3.20117 14C2.99481 14 2.78996 13.935 2.61309 13.8061C2.29481 13.5738 2.14492 13.1896 2.22236 12.8034L2.95734 9.12848L0.292743 6.46388C0.0344273 6.20557 -0.0620038 5.82784 0.0399234 5.47759C0.141851 5.12734 0.426647 4.86103 0.782393 4.78208L4.17097 4.02912L6.12358 0.514632C6.29995 0.196859 6.63471 0 6.99745 0C7.36019 0 7.69495 0.196859 7.87083 0.513633L9.82343 4.02812L13.212 4.78109C13.5678 4.86003 13.8526 5.12634 13.9545 5.47659C14.0564 5.82684 13.96 6.20457 13.7017 6.46288L11.0371 9.12748L11.772 12.8019C11.849 13.1886 11.6991 13.5728 11.3813 13.8051C11.0625 14.038 10.6513 14.0635 10.3071 13.8716L6.99745 12.0339L3.68782 13.8726C3.53443 13.958 3.36705 14 3.20117 14Z" fill="#FFD700"/></svg>